<?xml version="1.0" encoding="UTF-8" standalone="no"?>
<!-- Generator: Adobe Illustrator 27.5.0, SVG Export Plug-In . SVG Version: 6.00 Build 0)  -->

<svg
   version="1.1"
   id="Layer_1"
   x="0px"
   y="0px"
   viewBox="0 0 15429.64 56131.483"
   xml:space="preserve"
   width="15429.641"
   height="56131.484"
   xmlns:xlink="http://www.w3.org/1999/xlink"
   xmlns="http://www.w3.org/2000/svg"
   xmlns:svg="http://www.w3.org/2000/svg"><defs
   id="defs359"><radialGradient
     id="radialGradient658"
     cx="-5320.5352"
     cy="2753.9746"
     r="56.123402"
     gradientTransform="matrix(1,-0.0043,0.0043,1,5141.8965,-2578.2793)"
     gradientUnits="userSpaceOnUse">
				<stop
   offset="0.1286"
   style="stop-color:#FFFFFF"
   id="stop656" />
				<stop
   offset="0.59799999"
   style="stop-color:#d7d6d6;stop-opacity:1;"
   id="stop657" />
				<stop
   offset="1"
   style="stop-color:#737171"
   id="stop658" />
			</radialGradient><radialGradient
     id="radialGradient655"
     cx="-5321.9238"
     cy="2735.2812"
     r="73.681099"
     gradientTransform="matrix(1,-0.0043,0.0043,1,5141.8965,-2578.2793)"
     gradientUnits="userSpaceOnUse">
				<stop
   offset="0.4943"
   style="stop-color:#FFFFFF"
   id="stop654" />
				<stop
   offset="0.98710001"
   style="stop-color:#bababa;stop-opacity:1;"
   id="stop655" />
			</radialGradient><linearGradient
     id="SVGID_00000041293810861850974600000016453184957696208573_"
     gradientUnits="userSpaceOnUse"
     x1="-5362.9727"
     y1="2708.9097"
     x2="-5281.7227"
     y2="2708.9097"
     gradientTransform="matrix(1,-0.0043,0.0043,1,5141.8965,-2578.2793)">
			<stop
   offset="0"
   style="stop-color:#E7008C"
   id="stop74" />
			<stop
   offset="0.114"
   style="stop-color:#E10089"
   id="stop75" />
			<stop
   offset="0.2662"
   style="stop-color:#D00182"
   id="stop76" />
			<stop
   offset="0.43979999"
   style="stop-color:#51ccfd;stop-opacity:1;"
   id="stop77" />
			<stop
   offset="0.6279"
   style="stop-color:#1c73f9;stop-opacity:1;"
   id="stop78" />
			<stop
   offset="0.78140002"
   style="stop-color:#0914d5;stop-opacity:1;"
   id="stop79" />
			<stop
   offset="1"
   style="stop-color:#A70271"
   id="stop80" />
		</linearGradient><linearGradient
     id="SVGID_00000017504714246754897210000005748789523413952434_"
     gradientUnits="userSpaceOnUse"
     x1="-5326.4204"
     y1="2614.0989"
     x2="-5318.5005"
     y2="2614.0989"
     gradientTransform="matrix(1,-0.0043,0.0043,1,5141.8965,-2578.2793)">
			<stop
   offset="0"
   style="stop-color:#000041"
   id="stop81" />
			<stop
   offset="0.0624"
   style="stop-color:#0C134B"
   id="stop82" />
			<stop
   offset="0.204"
   style="stop-color:#233A60"
   id="stop83" />
			<stop
   offset="0.3175"
   style="stop-color:#32516D"
   id="stop84" />
			<stop
   offset="0.3879"
   style="stop-color:#375A72"
   id="stop85" />
			<stop
   offset="0.5225"
   style="stop-color:#2A4558"
   id="stop86" />
			<stop
   offset="0.8089"
   style="stop-color:#0A1115"
   id="stop87" />
			<stop
   offset="0.8956"
   style="stop-color:#000000"
   id="stop88" />
		</linearGradient><linearGradient
     id="SVGID_00000180345955917473904900000001447802074144249238_"
     gradientUnits="userSpaceOnUse"
     x1="-5326.248"
     y1="2608.6428"
     x2="-5318.3999"
     y2="2608.6428"
     gradientTransform="matrix(1,-0.0043,0.0043,1,5141.8965,-2578.2793)">
			<stop
   offset="0"
   style="stop-color:#FFFBCE"
   id="stop89" />
			<stop
   offset="0.2045"
   style="stop-color:#FFDD00"
   id="stop90" />
			<stop
   offset="0.3844"
   style="stop-color:#FFC300"
   id="stop91" />
			<stop
   offset="0.767"
   style="stop-color:#FF8000"
   id="stop92" />
			<stop
   offset="1"
   style="stop-color:#FF5500"
   id="stop93" />
		</linearGradient><linearGradient
     id="SVGID_00000173139442328146720860000002753446392985206457_"
     gradientUnits="userSpaceOnUse"
     x1="-5338.4087"
     y1="2634.4312"
     x2="-5305.457"
     y2="2634.4312"
     gradientTransform="matrix(1,-0.0043,0.0043,1,5141.8965,-2578.2793)">
			<stop
   offset="0.0943"
   style="stop-color:#F8C1C9"
   id="stop249" />
			<stop
   offset="0.2588"
   style="stop-color:#FBA2D3"
   id="stop250" />
			<stop
   offset="0.4331"
   style="stop-color:#FD86DD"
   id="stop251" />
			<stop
   offset="0.5917"
   style="stop-color:#F661B1"
   id="stop252" />
			<stop
   offset="0.8705"
   style="stop-color:#EB2569"
   id="stop253" />
			<stop
   offset="1"
   style="stop-color:#E70D4C"
   id="stop254" />
		</linearGradient><linearGradient
     id="SVGID_00000045576605164608351060000000625180439999900565_"
     gradientUnits="userSpaceOnUse"
     x1="-5358.2026"
     y1="2769.9768"
     x2="-5286.9116"
     y2="2769.9768"
     gradientTransform="matrix(1,-0.0043,0.0043,1,5141.8965,-2578.2793)">
			<stop
   offset="0.0943"
   style="stop-color:#F8C1C9"
   id="stop263" />
			<stop
   offset="0.2588"
   style="stop-color:#FBA2D3"
   id="stop264" />
			<stop
   offset="0.4331"
   style="stop-color:#FD86DD"
   id="stop265" />
			<stop
   offset="0.5917"
   style="stop-color:#F661B1"
   id="stop266" />
			<stop
   offset="0.8705"
   style="stop-color:#EB2569"
   id="stop267" />
			<stop
   offset="1"
   style="stop-color:#E70D4C"
   id="stop268" />
		</linearGradient><linearGradient
     id="SVGID_00000088818229337056179530000015265153168088231843_"
     gradientUnits="userSpaceOnUse"
     x1="-5356.707"
     y1="2692.2788"
     x2="-5277.7202"
     y2="2692.2788"
     gradientTransform="matrix(1,-0.0043,0.0043,1,5141.8965,-2578.2793)">
			<stop
   offset="0"
   style="stop-color:#FFFFFF"
   id="stop295" />
			<stop
   offset="0.65030003"
   style="stop-color:#ededed;stop-opacity:1;"
   id="stop296" />
			<stop
   offset="0.72100002"
   style="stop-color:#d7d6d6;stop-opacity:1;"
   id="stop297" />
			<stop
   offset="0.99580002"
   style="stop-color:#ffffff;stop-opacity:1;"
   id="stop298" />
		</linearGradient><radialGradient
     id="SVGID_00000014608546451841832980000010171683437493203106_"
     cx="-5285.0088"
     cy="2703.1882"
     r="96.885803"
     gradientTransform="matrix(1,-0.0043,0.0043,1,5141.8965,-2578.2793)"
     gradientUnits="userSpaceOnUse">
			<stop
   offset="0"
   style="stop-color:#2e74ff;stop-opacity:1;"
   id="stop299" />
			<stop
   offset="0.8078"
   style="stop-color:#000000"
   id="stop300" />
		</radialGradient><linearGradient
     id="SVGID_00000071537930183633145760000008778977307268831148_"
     gradientUnits="userSpaceOnUse"
     x1="-5341.814"
     y1="2635.3738"
     x2="-5344.6045"
     y2="2794.8999"
     gradientTransform="matrix(1,-0.0043,0.0043,1,5141.8965,-2578.2793)">
			<stop
   offset="0.5278"
   style="stop-color:#FFFFFF"
   id="stop303" />
			<stop
   offset="0.9227"
   style="stop-color:#000000"
   id="stop304" />
		</linearGradient><radialGradient
     id="SVGID_00000180355824711984642450000005110864937577443722_"
     cx="-5358.5161"
     cy="2707.7473"
     r="66.513802"
     gradientTransform="matrix(1,-0.0043,0.0043,1,5141.8965,-2578.2793)"
     gradientUnits="userSpaceOnUse">
			<stop
   offset="0.6933"
   style="stop-color:#FFFFFF"
   id="stop305" />
			<stop
   offset="0.9871"
   style="stop-color:#000000"
   id="stop306" />
		</radialGradient><radialGradient
     id="SVGID_00000044889801558223860350000010937264717696917431_"
     cx="-5323.5342"
     cy="2612.209"
     r="11.3945"
     gradientTransform="matrix(1,-0.0043,0.0043,1,5141.8965,-2578.2793)"
     gradientUnits="userSpaceOnUse">
			<stop
   offset="0.69999999"
   style="stop-color:#FFFFFF"
   id="stop307" />
			<stop
   offset="0.98710001"
   style="stop-color:#ffc5c5;stop-opacity:1;"
   id="stop308" />
		</radialGradient><linearGradient
     id="SVGID_00000102515420411082964020000004900355102387146939_"
     gradientUnits="userSpaceOnUse"
     x1="-5346.4219"
     y1="2676.2534"
     x2="-5281.3013"
     y2="2676.2534"
     gradientTransform="matrix(1,-0.0043,0.0043,1,5141.8965,-2578.2793)">
				<stop
   offset="0"
   style="stop-color:#000041"
   id="stop101" />
				<stop
   offset="0.0624"
   style="stop-color:#0C134B"
   id="stop102" />
				<stop
   offset="0.204"
   style="stop-color:#233A60"
   id="stop103" />
				<stop
   offset="0.3175"
   style="stop-color:#32516D"
   id="stop104" />
				<stop
   offset="0.3879"
   style="stop-color:#375A72"
   id="stop105" />
				<stop
   offset="0.5225"
   style="stop-color:#2A4558"
   id="stop106" />
				<stop
   offset="0.8089"
   style="stop-color:#0A1115"
   id="stop107" />
				<stop
   offset="0.8956"
   style="stop-color:#000000"
   id="stop108" />
			</linearGradient><linearGradient
     id="SVGID_00000161633248983212266070000010967589638467327679_"
     gradientUnits="userSpaceOnUse"
     x1="-5364.229"
     y1="2688.1174"
     x2="-5279.6118"
     y2="2687.6526"
     gradientTransform="matrix(1,-0.0043,0.0043,1,5141.8965,-2578.2793)">
				<stop
   offset="0.0943"
   style="stop-color:#F8C1C9"
   id="stop109" />
				<stop
   offset="0.2588"
   style="stop-color:#FBA2D3"
   id="stop110" />
				<stop
   offset="0.4331"
   style="stop-color:#FD86DD"
   id="stop111" />
				<stop
   offset="0.5917"
   style="stop-color:#F661B1"
   id="stop112" />
				<stop
   offset="0.8705"
   style="stop-color:#EB2569"
   id="stop113" />
				<stop
   offset="1"
   style="stop-color:#E70D4C"
   id="stop114" />
			</linearGradient><linearGradient
     id="SVGID_00000022549909674155612230000004530710194545206951_"
     gradientUnits="userSpaceOnUse"
     x1="-5346.3984"
     y1="2674.9929"
     x2="-5281.3125"
     y2="2674.9929"
     gradientTransform="matrix(1,-0.0043,0.0043,1,5141.8965,-2578.2793)">
				<stop
   offset="0"
   style="stop-color:#000041"
   id="stop115" />
				<stop
   offset="0.0624"
   style="stop-color:#0C134B"
   id="stop116" />
				<stop
   offset="0.204"
   style="stop-color:#233A60"
   id="stop117" />
				<stop
   offset="0.3175"
   style="stop-color:#32516D"
   id="stop118" />
				<stop
   offset="0.3879"
   style="stop-color:#375A72"
   id="stop119" />
				<stop
   offset="0.5225"
   style="stop-color:#2A4558"
   id="stop120" />
				<stop
   offset="0.8089"
   style="stop-color:#0A1115"
   id="stop121" />
				<stop
   offset="0.8956"
   style="stop-color:#000000"
   id="stop122" />
			</linearGradient><linearGradient
     id="SVGID_00000101820093184136763720000005826316735510962359_"
     gradientUnits="userSpaceOnUse"
     x1="-5346.4189"
     y1="2700.7471"
     x2="-5281.291"
     y2="2700.7471"
     gradientTransform="matrix(1,-0.0043,0.0043,1,5141.8965,-2578.2793)">
				<stop
   offset="0"
   style="stop-color:#000041"
   id="stop123" />
				<stop
   offset="0.0624"
   style="stop-color:#0C134B"
   id="stop124" />
				<stop
   offset="0.204"
   style="stop-color:#233A60"
   id="stop125" />
				<stop
   offset="0.3175"
   style="stop-color:#32516D"
   id="stop126" />
				<stop
   offset="0.3879"
   style="stop-color:#375A72"
   id="stop127" />
				<stop
   offset="0.5225"
   style="stop-color:#2A4558"
   id="stop128" />
				<stop
   offset="0.8089"
   style="stop-color:#0A1115"
   id="stop129" />
				<stop
   offset="0.8956"
   style="stop-color:#000000"
   id="stop130" />
			</linearGradient><linearGradient
     id="SVGID_00000129164716675193720430000017078437150452834229_"
     gradientUnits="userSpaceOnUse"
     x1="-5364.2183"
     y1="2687.3516"
     x2="-5279.5898"
     y2="2686.8867"
     gradientTransform="matrix(1,-0.0043,0.0043,1,5141.8965,-2578.2793)">
				<stop
   offset="0.0943"
   style="stop-color:#F8C1C9"
   id="stop131" />
				<stop
   offset="0.2588"
   style="stop-color:#FBA2D3"
   id="stop132" />
				<stop
   offset="0.4331"
   style="stop-color:#FD86DD"
   id="stop133" />
				<stop
   offset="0.5917"
   style="stop-color:#F661B1"
   id="stop134" />
				<stop
   offset="0.8705"
   style="stop-color:#EB2569"
   id="stop135" />
				<stop
   offset="1"
   style="stop-color:#E70D4C"
   id="stop136" />
			</linearGradient><linearGradient
     id="SVGID_00000140002951371041426690000005343365253657908406_"
     gradientUnits="userSpaceOnUse"
     x1="-5346.4297"
     y1="2699.7427"
     x2="-5281.3081"
     y2="2699.7427"
     gradientTransform="matrix(1,-0.0043,0.0043,1,5141.8965,-2578.2793)">
				<stop
   offset="0"
   style="stop-color:#000041"
   id="stop137" />
				<stop
   offset="0.0624"
   style="stop-color:#0C134B"
   id="stop138" />
				<stop
   offset="0.204"
   style="stop-color:#233A60"
   id="stop139" />
				<stop
   offset="0.3175"
   style="stop-color:#32516D"
   id="stop140" />
				<stop
   offset="0.3879"
   style="stop-color:#375A72"
   id="stop141" />
				<stop
   offset="0.5225"
   style="stop-color:#2A4558"
   id="stop142" />
				<stop
   offset="0.8089"
   style="stop-color:#0A1115"
   id="stop143" />
				<stop
   offset="0.8956"
   style="stop-color:#000000"
   id="stop144" />
			</linearGradient><linearGradient
     id="SVGID_00000169542803934055867240000003715271673398766223_"
     gradientUnits="userSpaceOnUse"
     x1="-5364.3184"
     y1="2673.2427"
     x2="-5279.6626"
     y2="2672.7776"
     gradientTransform="matrix(1,-0.0043,0.0043,1,5141.8965,-2578.2793)">
				<stop
   offset="0.0943"
   style="stop-color:#F8C1C9"
   id="stop145" />
				<stop
   offset="0.2588"
   style="stop-color:#FBA2D3"
   id="stop146" />
				<stop
   offset="0.4331"
   style="stop-color:#FD86DD"
   id="stop147" />
				<stop
   offset="0.5917"
   style="stop-color:#F661B1"
   id="stop148" />
				<stop
   offset="0.8705"
   style="stop-color:#EB2569"
   id="stop149" />
				<stop
   offset="1"
   style="stop-color:#E70D4C"
   id="stop150" />
			</linearGradient><linearGradient
     id="SVGID_00000120546225321090191190000017742501433104320662_"
     gradientUnits="userSpaceOnUse"
     x1="-5346.4194"
     y1="2685.6511"
     x2="-5281.2988"
     y2="2685.6511"
     gradientTransform="matrix(1,-0.0043,0.0043,1,5141.8965,-2578.2793)">
				<stop
   offset="0"
   style="stop-color:#000041"
   id="stop151" />
				<stop
   offset="0.0624"
   style="stop-color:#0C134B"
   id="stop152" />
				<stop
   offset="0.204"
   style="stop-color:#233A60"
   id="stop153" />
				<stop
   offset="0.3175"
   style="stop-color:#32516D"
   id="stop154" />
				<stop
   offset="0.3879"
   style="stop-color:#375A72"
   id="stop155" />
				<stop
   offset="0.5225"
   style="stop-color:#2A4558"
   id="stop156" />
				<stop
   offset="0.8089"
   style="stop-color:#0A1115"
   id="stop157" />
				<stop
   offset="0.8956"
   style="stop-color:#000000"
   id="stop158" />
			</linearGradient><linearGradient
     id="SVGID_00000115495795148000205530000002202029323175623073_"
     gradientUnits="userSpaceOnUse"
     x1="-5364.3145"
     y1="2673.9016"
     x2="-5279.6543"
     y2="2673.4363"
     gradientTransform="matrix(1,-0.0043,0.0043,1,5141.8965,-2578.2793)">
				<stop
   offset="0.0943"
   style="stop-color:#F8C1C9"
   id="stop159" />
				<stop
   offset="0.2588"
   style="stop-color:#FBA2D3"
   id="stop160" />
				<stop
   offset="0.4331"
   style="stop-color:#FD86DD"
   id="stop161" />
				<stop
   offset="0.5917"
   style="stop-color:#F661B1"
   id="stop162" />
				<stop
   offset="0.8705"
   style="stop-color:#EB2569"
   id="stop163" />
				<stop
   offset="1"
   style="stop-color:#E70D4C"
   id="stop164" />
			</linearGradient><linearGradient
     id="SVGID_00000051347084454215349580000012361053323811643814_"
     gradientUnits="userSpaceOnUse"
     x1="-5346.4209"
     y1="2684.8218"
     x2="-5281.3096"
     y2="2684.8218"
     gradientTransform="matrix(1,-0.0043,0.0043,1,5141.8965,-2578.2793)">
				<stop
   offset="0"
   style="stop-color:#000041"
   id="stop165" />
				<stop
   offset="0.0624"
   style="stop-color:#0C134B"
   id="stop166" />
				<stop
   offset="0.204"
   style="stop-color:#233A60"
   id="stop167" />
				<stop
   offset="0.3175"
   style="stop-color:#32516D"
   id="stop168" />
				<stop
   offset="0.3879"
   style="stop-color:#375A72"
   id="stop169" />
				<stop
   offset="0.5225"
   style="stop-color:#2A4558"
   id="stop170" />
				<stop
   offset="0.8089"
   style="stop-color:#0A1115"
   id="stop171" />
				<stop
   offset="0.8956"
   style="stop-color:#000000"
   id="stop172" />
			</linearGradient><linearGradient
     id="SVGID_00000048481825650789192530000000199031940330354871_"
     gradientUnits="userSpaceOnUse"
     x1="-5364.1768"
     y1="2698.5439"
     x2="-5279.5264"
     y2="2698.0789"
     gradientTransform="matrix(1,-0.0043,0.0043,1,5141.8965,-2578.2793)">
				<stop
   offset="0.0943"
   style="stop-color:#F8C1C9"
   id="stop173" />
				<stop
   offset="0.2588"
   style="stop-color:#FBA2D3"
   id="stop174" />
				<stop
   offset="0.4331"
   style="stop-color:#FD86DD"
   id="stop175" />
				<stop
   offset="0.5917"
   style="stop-color:#F661B1"
   id="stop176" />
				<stop
   offset="0.8705"
   style="stop-color:#EB2569"
   id="stop177" />
				<stop
   offset="1"
   style="stop-color:#E70D4C"
   id="stop178" />
			</linearGradient><linearGradient
     id="SVGID_00000182488375981301871690000007798766974936021412_"
     gradientUnits="userSpaceOnUse"
     x1="-5364.1699"
     y1="2698.063"
     x2="-5279.5342"
     y2="2697.5979"
     gradientTransform="matrix(1,-0.0043,0.0043,1,5141.8965,-2578.2793)">
				<stop
   offset="0.0943"
   style="stop-color:#F8C1C9"
   id="stop179" />
				<stop
   offset="0.2588"
   style="stop-color:#FBA2D3"
   id="stop180" />
				<stop
   offset="0.4331"
   style="stop-color:#FD86DD"
   id="stop181" />
				<stop
   offset="0.5917"
   style="stop-color:#F661B1"
   id="stop182" />
				<stop
   offset="0.8705"
   style="stop-color:#EB2569"
   id="stop183" />
				<stop
   offset="1"
   style="stop-color:#E70D4C"
   id="stop184" />
			</linearGradient><linearGradient
     id="SVGID_00000124133461044088882680000008762767697351308196_"
     gradientUnits="userSpaceOnUse"
     x1="-5364.2588"
     y1="2683.762"
     x2="-5279.6084"
     y2="2683.2969"
     gradientTransform="matrix(1,-0.0043,0.0043,1,5141.8965,-2578.2793)">
				<stop
   offset="0.0943"
   style="stop-color:#F8C1C9"
   id="stop185" />
				<stop
   offset="0.2588"
   style="stop-color:#FBA2D3"
   id="stop186" />
				<stop
   offset="0.4331"
   style="stop-color:#FD86DD"
   id="stop187" />
				<stop
   offset="0.5917"
   style="stop-color:#F661B1"
   id="stop188" />
				<stop
   offset="0.8705"
   style="stop-color:#EB2569"
   id="stop189" />
				<stop
   offset="1"
   style="stop-color:#E70D4C"
   id="stop190" />
			</linearGradient><linearGradient
     id="SVGID_00000036956949495125440790000014044212434307647388_"
     gradientUnits="userSpaceOnUse"
     x1="-5346.418"
     y1="2671.5012"
     x2="-5281.3115"
     y2="2671.5012"
     gradientTransform="matrix(1,-0.0043,0.0043,1,5141.8965,-2578.2793)">
				<stop
   offset="0"
   style="stop-color:#000041"
   id="stop191" />
				<stop
   offset="0.0624"
   style="stop-color:#0C134B"
   id="stop192" />
				<stop
   offset="0.204"
   style="stop-color:#233A60"
   id="stop193" />
				<stop
   offset="0.3175"
   style="stop-color:#32516D"
   id="stop194" />
				<stop
   offset="0.3879"
   style="stop-color:#375A72"
   id="stop195" />
				<stop
   offset="0.5225"
   style="stop-color:#2A4558"
   id="stop196" />
				<stop
   offset="0.8089"
   style="stop-color:#0A1115"
   id="stop197" />
				<stop
   offset="0.8956"
   style="stop-color:#000000"
   id="stop198" />
			</linearGradient><linearGradient
     id="SVGID_00000060730005902491746400000012484989191746440335_"
     gradientUnits="userSpaceOnUse"
     x1="-5364.2612"
     y1="2684.1611"
     x2="-5279.5898"
     y2="2683.696"
     gradientTransform="matrix(1,-0.0043,0.0043,1,5141.8965,-2578.2793)">
				<stop
   offset="0.0943"
   style="stop-color:#F8C1C9"
   id="stop199" />
				<stop
   offset="0.2588"
   style="stop-color:#FBA2D3"
   id="stop200" />
				<stop
   offset="0.4331"
   style="stop-color:#FD86DD"
   id="stop201" />
				<stop
   offset="0.5917"
   style="stop-color:#F661B1"
   id="stop202" />
				<stop
   offset="0.8705"
   style="stop-color:#EB2569"
   id="stop203" />
				<stop
   offset="1"
   style="stop-color:#E70D4C"
   id="stop204" />
			</linearGradient><linearGradient
     id="SVGID_00000174593066738909255290000013306109283123284661_"
     gradientUnits="userSpaceOnUse"
     x1="-5346.417"
     y1="2672.1135"
     x2="-5281.3242"
     y2="2672.1135"
     gradientTransform="matrix(1,-0.0043,0.0043,1,5141.8965,-2578.2793)">
				<stop
   offset="0"
   style="stop-color:#000041"
   id="stop205" />
				<stop
   offset="0.0624"
   style="stop-color:#0C134B"
   id="stop206" />
				<stop
   offset="0.204"
   style="stop-color:#233A60"
   id="stop207" />
				<stop
   offset="0.3175"
   style="stop-color:#32516D"
   id="stop208" />
				<stop
   offset="0.3879"
   style="stop-color:#375A72"
   id="stop209" />
				<stop
   offset="0.5225"
   style="stop-color:#2A4558"
   id="stop210" />
				<stop
   offset="0.8089"
   style="stop-color:#0A1115"
   id="stop211" />
				<stop
   offset="0.8956"
   style="stop-color:#000000"
   id="stop212" />
			</linearGradient><linearGradient
     id="SVGID_00000168829598169022698780000001091595536368332477_"
     gradientUnits="userSpaceOnUse"
     x1="-5346.4229"
     y1="2696.8198"
     x2="-5281.3105"
     y2="2696.8198"
     gradientTransform="matrix(1,-0.0043,0.0043,1,5141.8965,-2578.2793)">
				<stop
   offset="0"
   style="stop-color:#000041"
   id="stop213" />
				<stop
   offset="0.0624"
   style="stop-color:#0C134B"
   id="stop214" />
				<stop
   offset="0.204"
   style="stop-color:#233A60"
   id="stop215" />
				<stop
   offset="0.3175"
   style="stop-color:#32516D"
   id="stop216" />
				<stop
   offset="0.3879"
   style="stop-color:#375A72"
   id="stop217" />
				<stop
   offset="0.5225"
   style="stop-color:#2A4558"
   id="stop218" />
				<stop
   offset="0.8089"
   style="stop-color:#0A1115"
   id="stop219" />
				<stop
   offset="0.8956"
   style="stop-color:#000000"
   id="stop220" />
			</linearGradient><linearGradient
     id="SVGID_00000163067204637527878700000011800566354096916875_"
     gradientUnits="userSpaceOnUse"
     x1="-5346.4199"
     y1="2696.2983"
     x2="-5281.3125"
     y2="2696.2983"
     gradientTransform="matrix(1,-0.0043,0.0043,1,5141.8965,-2578.2793)">
				<stop
   offset="0"
   style="stop-color:#000041"
   id="stop221" />
				<stop
   offset="0.0624"
   style="stop-color:#0C134B"
   id="stop222" />
				<stop
   offset="0.204"
   style="stop-color:#233A60"
   id="stop223" />
				<stop
   offset="0.3175"
   style="stop-color:#32516D"
   id="stop224" />
				<stop
   offset="0.3879"
   style="stop-color:#375A72"
   id="stop225" />
				<stop
   offset="0.5225"
   style="stop-color:#2A4558"
   id="stop226" />
				<stop
   offset="0.8089"
   style="stop-color:#0A1115"
   id="stop227" />
				<stop
   offset="0.8956"
   style="stop-color:#000000"
   id="stop228" />
			</linearGradient><linearGradient
     id="SVGID_00000168831959541461057050000010216222169639348636_"
     gradientUnits="userSpaceOnUse"
     x1="-5364.1914"
     y1="2696.1731"
     x2="-5279.5396"
     y2="2695.708"
     gradientTransform="matrix(1,-0.0043,0.0043,1,5141.8965,-2578.2793)">
				<stop
   offset="0.0943"
   style="stop-color:#F8C1C9"
   id="stop229" />
				<stop
   offset="0.2588"
   style="stop-color:#FBA2D3"
   id="stop230" />
				<stop
   offset="0.4331"
   style="stop-color:#FD86DD"
   id="stop231" />
				<stop
   offset="0.5917"
   style="stop-color:#F661B1"
   id="stop232" />
				<stop
   offset="0.8705"
   style="stop-color:#EB2569"
   id="stop233" />
				<stop
   offset="1"
   style="stop-color:#E70D4C"
   id="stop234" />
			</linearGradient><linearGradient
     id="SVGID_00000014610989123409755000000012618568737826439345_"
     gradientUnits="userSpaceOnUse"
     x1="-5346.4233"
     y1="2683.1689"
     x2="-5281.3086"
     y2="2683.1689"
     gradientTransform="matrix(1,-0.0043,0.0043,1,5141.8965,-2578.2793)">
				<stop
   offset="0"
   style="stop-color:#000041"
   id="stop235" />
				<stop
   offset="0.0624"
   style="stop-color:#0C134B"
   id="stop236" />
				<stop
   offset="0.204"
   style="stop-color:#233A60"
   id="stop237" />
				<stop
   offset="0.3175"
   style="stop-color:#32516D"
   id="stop238" />
				<stop
   offset="0.3879"
   style="stop-color:#375A72"
   id="stop239" />
				<stop
   offset="0.5225"
   style="stop-color:#2A4558"
   id="stop240" />
				<stop
   offset="0.8089"
   style="stop-color:#0A1115"
   id="stop241" />
				<stop
   offset="0.8956"
   style="stop-color:#000000"
   id="stop242" />
			</linearGradient><linearGradient
     id="SVGID_00000178168575393335434040000009269476185789940664_"
     gradientUnits="userSpaceOnUse"
     x1="-5364.314"
     y1="2671.4275"
     x2="-5279.686"
     y2="2670.9624"
     gradientTransform="matrix(1,-0.0043,0.0043,1,5141.8965,-2578.2793)">
				<stop
   offset="0.0943"
   style="stop-color:#F8C1C9"
   id="stop243" />
				<stop
   offset="0.2588"
   style="stop-color:#FBA2D3"
   id="stop244" />
				<stop
   offset="0.4331"
   style="stop-color:#FD86DD"
   id="stop245" />
				<stop
   offset="0.5917"
   style="stop-color:#F661B1"
   id="stop246" />
				<stop
   offset="0.8705"
   style="stop-color:#EB2569"
   id="stop247" />
				<stop
   offset="1"
   style="stop-color:#E70D4C"
   id="stop248" />
			</linearGradient><radialGradient
     id="SVGID_00000042706979936706459720000010204650276072635031_"
     cx="-5325.3472"
     cy="2782.3171"
     r="57.648102"
     gradientTransform="matrix(1,-0.0043,0.0043,1,5141.8965,-2578.2793)"
     gradientUnits="userSpaceOnUse">
				<stop
   offset="0.4225"
   style="stop-color:#003788"
   id="stop21" />
				<stop
   offset="0.4813"
   style="stop-color:#00458E"
   id="stop22" />
				<stop
   offset="0.5934"
   style="stop-color:#006C9E"
   id="stop23" />
				<stop
   offset="0.7458"
   style="stop-color:#00A8B8"
   id="stop24" />
				<stop
   offset="0.8367"
   style="stop-color:#00D0C9"
   id="stop25" />
				<stop
   offset="0.8683"
   style="stop-color:#18DCD4"
   id="stop26" />
				<stop
   offset="0.9256"
   style="stop-color:#3FEFE5"
   id="stop27" />
				<stop
   offset="0.9715"
   style="stop-color:#56FBF0"
   id="stop28" />
				<stop
   offset="1"
   style="stop-color:#5FFFF4"
   id="stop29" />
			</radialGradient><radialGradient
     id="SVGID_00000024722516270531320970000004632054709329867951_"
     cx="-5368.3428"
     cy="2753.6526"
     r="15.8431"
     gradientTransform="matrix(1,-0.0043,0.0043,1,5141.8965,-2578.2793)"
     gradientUnits="userSpaceOnUse">
				<stop
   offset="0.4225"
   style="stop-color:#003788"
   id="stop30" />
				<stop
   offset="0.4813"
   style="stop-color:#00488e;stop-opacity:1;"
   id="stop31" />
				<stop
   offset="0.5934"
   style="stop-color:#006C9E"
   id="stop32" />
				<stop
   offset="0.7458"
   style="stop-color:#00A8B8"
   id="stop33" />
				<stop
   offset="0.8367"
   style="stop-color:#00D0C9"
   id="stop34" />
				<stop
   offset="0.8683"
   style="stop-color:#18DCD4"
   id="stop35" />
				<stop
   offset="0.9256"
   style="stop-color:#3FEFE5"
   id="stop36" />
				<stop
   offset="0.9715"
   style="stop-color:#56FBF0"
   id="stop37" />
				<stop
   offset="1"
   style="stop-color:#5FFFF4"
   id="stop38" />
			</radialGradient><linearGradient
     id="SVGID_00000006703101041360739470000000917934837881111994_"
     gradientUnits="userSpaceOnUse"
     x1="-5380.6904"
     y1="2770.3657"
     x2="-5351.3125"
     y2="2770.3657"
     gradientTransform="matrix(1,-0.0043,0.0043,1,5141.8965,-2578.2793)">
				<stop
   offset="0.1286"
   style="stop-color:#FFFFFF"
   id="stop39" />
				<stop
   offset="0.598"
   style="stop-color:#737171"
   id="stop40" />
				<stop
   offset="1"
   style="stop-color:#737171"
   id="stop41" />
			</linearGradient><radialGradient
     id="SVGID_00000037650871823221997400000002324611516116583603_"
     cx="-5376.9678"
     cy="2760.6121"
     r="41.393398"
     fx="-5380.7075"
     fy="2751.4253"
     gradientTransform="matrix(1,-0.0043,0.0043,1,5141.8965,-2578.2793)"
     gradientUnits="userSpaceOnUse">
				<stop
   offset="0.4943"
   style="stop-color:#FFFFFF"
   id="stop42" />
				<stop
   offset="0.9871"
   style="stop-color:#000000"
   id="stop43" />
			</radialGradient><radialGradient
     id="SVGID_00000061443804666410584000000007082341443046678922_"
     cx="6681.5884"
     cy="2781.6821"
     r="57.652699"
     gradientTransform="matrix(-1,0.0043,0.0043,1,6504.294,-2583.5005)"
     gradientUnits="userSpaceOnUse">
				<stop
   offset="0.4225"
   style="stop-color:#003788"
   id="stop51" />
				<stop
   offset="0.4813"
   style="stop-color:#00458E"
   id="stop52" />
				<stop
   offset="0.5934"
   style="stop-color:#006C9E"
   id="stop53" />
				<stop
   offset="0.7458"
   style="stop-color:#00A8B8"
   id="stop54" />
				<stop
   offset="0.8367"
   style="stop-color:#00D0C9"
   id="stop55" />
				<stop
   offset="0.8683"
   style="stop-color:#18DCD4"
   id="stop56" />
				<stop
   offset="0.9256"
   style="stop-color:#3FEFE5"
   id="stop57" />
				<stop
   offset="0.9715"
   style="stop-color:#56FBF0"
   id="stop58" />
				<stop
   offset="1"
   style="stop-color:#5FFFF4"
   id="stop59" />
			</radialGradient><radialGradient
     id="SVGID_00000057864130058348445920000004426363143880072083_"
     cx="-5276.186"
     cy="2753.6562"
     r="15.8408"
     gradientTransform="matrix(1,-0.0043,0.0043,1,5141.8965,-2578.2793)"
     gradientUnits="userSpaceOnUse">
				<stop
   offset="0.4225"
   style="stop-color:#003788"
   id="stop60" />
				<stop
   offset="0.4813"
   style="stop-color:#00458E"
   id="stop61" />
				<stop
   offset="0.5934"
   style="stop-color:#006C9E"
   id="stop62" />
				<stop
   offset="0.7458"
   style="stop-color:#00A8B8"
   id="stop63" />
				<stop
   offset="0.8367"
   style="stop-color:#00D0C9"
   id="stop64" />
				<stop
   offset="0.8683"
   style="stop-color:#18DCD4"
   id="stop65" />
				<stop
   offset="0.9256"
   style="stop-color:#3FEFE5"
   id="stop66" />
				<stop
   offset="0.9715"
   style="stop-color:#56FBF0"
   id="stop67" />
				<stop
   offset="1"
   style="stop-color:#5FFFF4"
   id="stop68" />
			</radialGradient><linearGradient
     id="SVGID_00000116230051976508845770000014199888285558841485_"
     gradientUnits="userSpaceOnUse"
     x1="6626.231"
     y1="2769.73"
     x2="6655.6182"
     y2="2769.73"
     gradientTransform="matrix(-1,0.0043,0.0043,1,6504.294,-2583.5005)">
				<stop
   offset="0.1286"
   style="stop-color:#FFFFFF"
   id="stop69" />
				<stop
   offset="0.598"
   style="stop-color:#737171"
   id="stop70" />
				<stop
   offset="1"
   style="stop-color:#737171"
   id="stop71" />
			</linearGradient><radialGradient
     id="SVGID_00000062150510131328810670000014567718633025881005_"
     cx="6629.9595"
     cy="2759.978"
     r="41.392399"
     fx="6626.2197"
     fy="2750.7915"
     gradientTransform="matrix(-1,0.0043,0.0043,1,6504.294,-2583.5005)"
     gradientUnits="userSpaceOnUse">
				<stop
   offset="0.4943"
   style="stop-color:#FFFFFF"
   id="stop72" />
				<stop
   offset="0.9871"
   style="stop-color:#000000"
   id="stop73" />
			</radialGradient><linearGradient
     id="SVGID_00000177484251203757873970000002520388388144463027_"
     gradientUnits="userSpaceOnUse"
     x1="59.6572"
     y1="28.8137"
     x2="69.692299"
     y2="28.8137"
     gradientTransform="translate(-233.64792,29.902584)">
				<stop
   offset="0"
   style="stop-color:#E7008C"
   id="stop94" />
				<stop
   offset="0.114"
   style="stop-color:#E10089"
   id="stop95" />
				<stop
   offset="0.2662"
   style="stop-color:#D00182"
   id="stop96" />
				<stop
   offset="0.4398"
   style="stop-color:#B40277"
   id="stop97" />
				<stop
   offset="0.6279"
   style="stop-color:#8E0367"
   id="stop98" />
				<stop
   offset="0.7814"
   style="stop-color:#690457"
   id="stop99" />
				<stop
   offset="1"
   style="stop-color:#A70271"
   id="stop100" />
			</linearGradient><linearGradient
     id="SVGID_00000134227736877999955020000007032054806109460885_"
     gradientUnits="userSpaceOnUse"
     x1="23.551399"
     y1="123.9585"
     x2="106.1919"
     y2="123.9585"
     gradientTransform="translate(-233.64792,29.902584)">
				<stop
   offset="0"
   style="stop-color:#ffffff;stop-opacity:1;"
   id="stop285" />
				<stop
   offset="0.114"
   style="stop-color:#ffbfe6;stop-opacity:1;"
   id="stop286" />
				<stop
   offset="0.2662"
   style="stop-color:#D00182"
   id="stop287" />
				<stop
   offset="0.4398"
   style="stop-color:#B40277"
   id="stop288" />
				<stop
   offset="0.6279"
   style="stop-color:#8E0367"
   id="stop289" />
				<stop
   offset="0.7814"
   style="stop-color:#690457"
   id="stop290" />
				<stop
   offset="1"
   style="stop-color:#A70271"
   id="stop291" />
			</linearGradient><radialGradient
     id="SVGID_00000093857261418676678710000008308284877071209366_"
     cx="-5322.2666"
     cy="2759.8386"
     r="22.1208"
     gradientTransform="matrix(1,-0.0043,0.0043,1,5141.8965,-2578.2793)"
     gradientUnits="userSpaceOnUse">
				<stop
   offset="0.6933"
   style="stop-color:#FFFFFF"
   id="stop356" />
				<stop
   offset="0.98710001"
   style="stop-color:#ffffff;stop-opacity:1;"
   id="stop357" />
			</radialGradient><linearGradient
     id="SVGID_00000009581990089848481380000000689061875941344396_"
     gradientUnits="userSpaceOnUse"
     x1="93.966797"
     y1="184.4052"
     x2="123.3833"
     y2="184.4052"
     gradientTransform="translate(-233.64792,29.902584)">
					<stop
   offset="0"
   style="stop-color:#E7008C"
   id="stop44" />
					<stop
   offset="0.114"
   style="stop-color:#E10089"
   id="stop45" />
					<stop
   offset="0.2662"
   style="stop-color:#D00182"
   id="stop46" />
					<stop
   offset="0.4398"
   style="stop-color:#B40277"
   id="stop47" />
					<stop
   offset="0.6279"
   style="stop-color:#8E0367"
   id="stop48" />
					<stop
   offset="0.7814"
   style="stop-color:#690457"
   id="stop49" />
					<stop
   offset="1"
   style="stop-color:#A70271"
   id="stop50" />
				</linearGradient><linearGradient
     id="SVGID_00000111179978670547599270000011309406884633297796_"
     gradientUnits="userSpaceOnUse"
     x1="49.253399"
     y1="188.25259"
     x2="80.195198"
     y2="188.25259"
     gradientTransform="translate(-233.64792,29.902584)">
					<stop
   offset="0"
   style="stop-color:#E7008C"
   id="stop309" />
					<stop
   offset="0.114"
   style="stop-color:#E10089"
   id="stop310" />
					<stop
   offset="0.2662"
   style="stop-color:#D00182"
   id="stop311" />
					<stop
   offset="0.4398"
   style="stop-color:#B40277"
   id="stop312" />
					<stop
   offset="0.6279"
   style="stop-color:#8E0367"
   id="stop313" />
					<stop
   offset="0.7814"
   style="stop-color:#690457"
   id="stop314" />
					<stop
   offset="1"
   style="stop-color:#A70271"
   id="stop315" />
				</linearGradient><linearGradient
     id="SVGID_1_"
     gradientUnits="userSpaceOnUse"
     x1="6.8355999"
     y1="184.718"
     x2="36.375999"
     y2="184.718"
     gradientTransform="translate(-233.64792,29.902584)">
					<stop
   offset="0"
   style="stop-color:#E7008C"
   id="stop14" />
					<stop
   offset="0.114"
   style="stop-color:#E10089"
   id="stop15" />
					<stop
   offset="0.2662"
   style="stop-color:#D00182"
   id="stop16" />
					<stop
   offset="0.4398"
   style="stop-color:#B40277"
   id="stop17" />
					<stop
   offset="0.6279"
   style="stop-color:#8E0367"
   id="stop18" />
					<stop
   offset="0.7814"
   style="stop-color:#690457"
   id="stop19" />
					<stop
   offset="1"
   style="stop-color:#A70271"
   id="stop20" />
				</linearGradient><linearGradient
     id="SVGID_00000140712565636072147790000012845206686596176044_"
     gradientUnits="userSpaceOnUse"
     x1="-5336.6621"
     y1="2783.552"
     x2="-5306.271"
     y2="2783.552"
     gradientTransform="matrix(1,-0.0043,0.0043,1,5141.8965,-2578.2793)">
					<stop
   offset="0"
   style="stop-color:#005595"
   id="stop316" />
					<stop
   offset="0.2348"
   style="stop-color:#00D0C9"
   id="stop317" />
					<stop
   offset="0.4864"
   style="stop-color:#5FFFF4"
   id="stop318" />
					<stop
   offset="0.6939"
   style="stop-color:#00D0C9"
   id="stop319" />
					<stop
   offset="0.795"
   style="stop-color:#009CB3"
   id="stop320" />
					<stop
   offset="0.8844"
   style="stop-color:#0075A3"
   id="stop321" />
					<stop
   offset="0.9558"
   style="stop-color:#005E99"
   id="stop322" />
					<stop
   offset="1"
   style="stop-color:#005595"
   id="stop323" />
				</linearGradient><radialGradient
     id="SVGID_00000001648301810914467850000012328724145805963912_"
     cx="-5331.1973"
     cy="2761.9001"
     r="11.8413"
     gradientTransform="matrix(1,-0.0043,0.0043,1,5141.8965,-2578.2793)"
     gradientUnits="userSpaceOnUse">
					<stop
   offset="0"
   style="stop-color:#003788"
   id="stop324" />
					<stop
   offset="0.1188"
   style="stop-color:#00458E"
   id="stop325" />
					<stop
   offset="0.3452"
   style="stop-color:#006C9E"
   id="stop326" />
					<stop
   offset="0.6531"
   style="stop-color:#00A8B8"
   id="stop327" />
					<stop
   offset="0.8367"
   style="stop-color:#00D0C9"
   id="stop328" />
					<stop
   offset="0.8683"
   style="stop-color:#18DCD4"
   id="stop329" />
					<stop
   offset="0.9256"
   style="stop-color:#3FEFE5"
   id="stop330" />
					<stop
   offset="0.9715"
   style="stop-color:#56FBF0"
   id="stop331" />
					<stop
   offset="1"
   style="stop-color:#5FFFF4"
   id="stop332" />
				</radialGradient><radialGradient
     id="SVGID_00000022555702826783603900000003075998037846055318_"
     cx="-5312.9741"
     cy="2758.573"
     r="9.9493999"
     gradientTransform="matrix(1,-0.0043,0.0043,1,5141.8965,-2578.2793)"
     gradientUnits="userSpaceOnUse">
					<stop
   offset="0.4225"
   style="stop-color:#003788"
   id="stop333" />
					<stop
   offset="0.4813"
   style="stop-color:#00458E"
   id="stop334" />
					<stop
   offset="0.5934"
   style="stop-color:#006C9E"
   id="stop335" />
					<stop
   offset="0.7458"
   style="stop-color:#00A8B8"
   id="stop336" />
					<stop
   offset="0.8367"
   style="stop-color:#00D0C9"
   id="stop337" />
					<stop
   offset="0.8683"
   style="stop-color:#18DCD4"
   id="stop338" />
					<stop
   offset="0.9256"
   style="stop-color:#3FEFE5"
   id="stop339" />
					<stop
   offset="0.9715"
   style="stop-color:#56FBF0"
   id="stop340" />
					<stop
   offset="1"
   style="stop-color:#5FFFF4"
   id="stop341" />
				</radialGradient><radialGradient
     id="SVGID_00000139989071395264287950000003240155157551249311_"
     cx="-5322.394"
     cy="2770.3784"
     r="15.2068"
     gradientTransform="matrix(1,-0.0043,0.0043,1,5141.8965,-2578.2793)"
     gradientUnits="userSpaceOnUse">
					<stop
   offset="0"
   style="stop-color:#003788"
   id="stop342" />
					<stop
   offset="0.0808"
   style="stop-color:#00458E"
   id="stop343" />
					<stop
   offset="0.235"
   style="stop-color:#006C9E"
   id="stop344" />
					<stop
   offset="0.4445"
   style="stop-color:#00A8B8"
   id="stop345" />
					<stop
   offset="0.5695"
   style="stop-color:#00D0C9"
   id="stop346" />
					<stop
   offset="0.6528"
   style="stop-color:#18DCD4"
   id="stop347" />
					<stop
   offset="0.8038"
   style="stop-color:#3FEFE5"
   id="stop348" />
					<stop
   offset="0.9249"
   style="stop-color:#56FBF0"
   id="stop349" />
					<stop
   offset="1"
   style="stop-color:#5FFFF4"
   id="stop350" />
				</radialGradient><linearGradient
     xlink:href="#SVGID_1_"
     id="linearGradient622"
     gradientUnits="userSpaceOnUse"
     gradientTransform="translate(-233.64792,29.902584)"
     x1="6.8355999"
     y1="184.718"
     x2="36.375999"
     y2="184.718" /><radialGradient
     xlink:href="#SVGID_00000024722516270531320970000004632054709329867951_"
     id="radialGradient623"
     gradientUnits="userSpaceOnUse"
     gradientTransform="matrix(1,-0.0043,0.0043,1,5141.8965,-2578.2793)"
     cx="-5368.3428"
     cy="2753.6526"
     r="15.8431" /><linearGradient
     xlink:href="#SVGID_00000006703101041360739470000000917934837881111994_"
     id="linearGradient623"
     gradientUnits="userSpaceOnUse"
     gradientTransform="matrix(1,-0.0043,0.0043,1,5141.8965,-2578.2793)"
     x1="-5380.6904"
     y1="2770.3657"
     x2="-5351.3125"
     y2="2770.3657" /><radialGradient
     xlink:href="#SVGID_00000037650871823221997400000002324611516116583603_"
     id="radialGradient624"
     gradientUnits="userSpaceOnUse"
     gradientTransform="matrix(1,-0.0043,0.0043,1,5141.8965,-2578.2793)"
     cx="-5376.9678"
     cy="2760.6121"
     fx="-5380.7075"
     fy="2751.4253"
     r="41.393398" /><linearGradient
     xlink:href="#SVGID_00000009581990089848481380000000689061875941344396_"
     id="linearGradient624"
     gradientUnits="userSpaceOnUse"
     gradientTransform="translate(-233.64792,29.902584)"
     x1="93.966797"
     y1="184.4052"
     x2="123.3833"
     y2="184.4052" /><linearGradient
     xlink:href="#SVGID_00000116230051976508845770000014199888285558841485_"
     id="linearGradient625"
     gradientUnits="userSpaceOnUse"
     gradientTransform="matrix(-1,0.0043,0.0043,1,6504.294,-2583.5005)"
     x1="6626.231"
     y1="2769.73"
     x2="6655.6182"
     y2="2769.73" /><radialGradient
     xlink:href="#SVGID_00000062150510131328810670000014567718633025881005_"
     id="radialGradient625"
     gradientUnits="userSpaceOnUse"
     gradientTransform="matrix(-1,0.0043,0.0043,1,6504.294,-2583.5005)"
     cx="6629.9595"
     cy="2759.978"
     fx="6626.2197"
     fy="2750.7915"
     r="41.392399" /><linearGradient
     xlink:href="#SVGID_00000041293810861850974600000016453184957696208573_"
     id="linearGradient626"
     gradientUnits="userSpaceOnUse"
     gradientTransform="matrix(1,-0.0043,0.0043,1,5141.8965,-2578.2793)"
     x1="-5362.9727"
     y1="2708.9097"
     x2="-5281.7227"
     y2="2708.9097" /><linearGradient
     xlink:href="#SVGID_00000017504714246754897210000005748789523413952434_"
     id="linearGradient627"
     gradientUnits="userSpaceOnUse"
     gradientTransform="matrix(1,-0.0043,0.0043,1,5141.8965,-2578.2793)"
     x1="-5326.4204"
     y1="2614.0989"
     x2="-5318.5005"
     y2="2614.0989" /><linearGradient
     xlink:href="#SVGID_00000180345955917473904900000001447802074144249238_"
     id="linearGradient628"
     gradientUnits="userSpaceOnUse"
     gradientTransform="matrix(1,-0.0043,0.0043,1,5141.8965,-2578.2793)"
     x1="-5326.248"
     y1="2608.6428"
     x2="-5318.3999"
     y2="2608.6428" /><linearGradient
     xlink:href="#SVGID_00000177484251203757873970000002520388388144463027_"
     id="linearGradient629"
     gradientUnits="userSpaceOnUse"
     gradientTransform="translate(-233.64792,29.902584)"
     x1="59.6572"
     y1="28.8137"
     x2="69.692299"
     y2="28.8137" /><linearGradient
     xlink:href="#SVGID_00000161633248983212266070000010967589638467327679_"
     id="linearGradient630"
     gradientUnits="userSpaceOnUse"
     gradientTransform="matrix(1,-0.0043,0.0043,1,5141.8965,-2578.2793)"
     x1="-5364.229"
     y1="2688.1174"
     x2="-5279.6118"
     y2="2687.6526" /><linearGradient
     xlink:href="#SVGID_00000022549909674155612230000004530710194545206951_"
     id="linearGradient631"
     gradientUnits="userSpaceOnUse"
     gradientTransform="matrix(1,-0.0043,0.0043,1,5141.8965,-2578.2793)"
     x1="-5346.3984"
     y1="2674.9929"
     x2="-5281.3125"
     y2="2674.9929" /><linearGradient
     xlink:href="#SVGID_00000129164716675193720430000017078437150452834229_"
     id="linearGradient632"
     gradientUnits="userSpaceOnUse"
     gradientTransform="matrix(1,-0.0043,0.0043,1,5141.8965,-2578.2793)"
     x1="-5364.2183"
     y1="2687.3516"
     x2="-5279.5898"
     y2="2686.8867" /><linearGradient
     xlink:href="#SVGID_00000140002951371041426690000005343365253657908406_"
     id="linearGradient633"
     gradientUnits="userSpaceOnUse"
     gradientTransform="matrix(1,-0.0043,0.0043,1,5141.8965,-2578.2793)"
     x1="-5346.4297"
     y1="2699.7427"
     x2="-5281.3081"
     y2="2699.7427" /><linearGradient
     xlink:href="#SVGID_00000169542803934055867240000003715271673398766223_"
     id="linearGradient634"
     gradientUnits="userSpaceOnUse"
     gradientTransform="matrix(1,-0.0043,0.0043,1,5141.8965,-2578.2793)"
     x1="-5364.3184"
     y1="2673.2427"
     x2="-5279.6626"
     y2="2672.7776" /><linearGradient
     xlink:href="#SVGID_00000115495795148000205530000002202029323175623073_"
     id="linearGradient635"
     gradientUnits="userSpaceOnUse"
     gradientTransform="matrix(1,-0.0043,0.0043,1,5141.8965,-2578.2793)"
     x1="-5364.3145"
     y1="2673.9016"
     x2="-5279.6543"
     y2="2673.4363" /><linearGradient
     xlink:href="#SVGID_00000051347084454215349580000012361053323811643814_"
     id="linearGradient636"
     gradientUnits="userSpaceOnUse"
     gradientTransform="matrix(1,-0.0043,0.0043,1,5141.8965,-2578.2793)"
     x1="-5346.4209"
     y1="2684.8218"
     x2="-5281.3096"
     y2="2684.8218" /><linearGradient
     xlink:href="#SVGID_00000048481825650789192530000000199031940330354871_"
     id="linearGradient637"
     gradientUnits="userSpaceOnUse"
     gradientTransform="matrix(1,-0.0043,0.0043,1,5141.8965,-2578.2793)"
     x1="-5364.1768"
     y1="2698.5439"
     x2="-5279.5264"
     y2="2698.0789" /><linearGradient
     xlink:href="#SVGID_00000182488375981301871690000007798766974936021412_"
     id="linearGradient638"
     gradientUnits="userSpaceOnUse"
     gradientTransform="matrix(1,-0.0043,0.0043,1,5141.8965,-2578.2793)"
     x1="-5364.1699"
     y1="2698.063"
     x2="-5279.5342"
     y2="2697.5979" /><linearGradient
     xlink:href="#SVGID_00000124133461044088882680000008762767697351308196_"
     id="linearGradient639"
     gradientUnits="userSpaceOnUse"
     gradientTransform="matrix(1,-0.0043,0.0043,1,5141.8965,-2578.2793)"
     x1="-5364.2588"
     y1="2683.762"
     x2="-5279.6084"
     y2="2683.2969" /><linearGradient
     xlink:href="#SVGID_00000060730005902491746400000012484989191746440335_"
     id="linearGradient640"
     gradientUnits="userSpaceOnUse"
     gradientTransform="matrix(1,-0.0043,0.0043,1,5141.8965,-2578.2793)"
     x1="-5364.2612"
     y1="2684.1611"
     x2="-5279.5898"
     y2="2683.696" /><linearGradient
     xlink:href="#SVGID_00000168831959541461057050000010216222169639348636_"
     id="linearGradient641"
     gradientUnits="userSpaceOnUse"
     gradientTransform="matrix(1,-0.0043,0.0043,1,5141.8965,-2578.2793)"
     x1="-5364.1914"
     y1="2696.1731"
     x2="-5279.5396"
     y2="2695.708" /><linearGradient
     xlink:href="#SVGID_00000178168575393335434040000009269476185789940664_"
     id="linearGradient642"
     gradientUnits="userSpaceOnUse"
     gradientTransform="matrix(1,-0.0043,0.0043,1,5141.8965,-2578.2793)"
     x1="-5364.314"
     y1="2671.4275"
     x2="-5279.686"
     y2="2670.9624" /><linearGradient
     xlink:href="#SVGID_00000173139442328146720860000002753446392985206457_"
     id="linearGradient643"
     gradientUnits="userSpaceOnUse"
     gradientTransform="matrix(1,-0.0043,0.0043,1,5141.8965,-2578.2793)"
     x1="-5338.4087"
     y1="2634.4312"
     x2="-5305.457"
     y2="2634.4312" /><linearGradient
     xlink:href="#SVGID_00000045576605164608351060000000625180439999900565_"
     id="linearGradient644"
     gradientUnits="userSpaceOnUse"
     gradientTransform="matrix(1,-0.0043,0.0043,1,5141.8965,-2578.2793)"
     x1="-5358.2026"
     y1="2769.9768"
     x2="-5286.9116"
     y2="2769.9768" /><linearGradient
     xlink:href="#SVGID_00000134227736877999955020000007032054806109460885_"
     id="linearGradient645"
     gradientUnits="userSpaceOnUse"
     gradientTransform="translate(-233.64792,29.902584)"
     x1="23.551399"
     y1="123.9585"
     x2="106.1919"
     y2="123.9585" /><linearGradient
     xlink:href="#SVGID_00000088818229337056179530000015265153168088231843_"
     id="linearGradient646"
     gradientUnits="userSpaceOnUse"
     gradientTransform="matrix(1,-0.0043,0.0043,1,5141.8965,-2578.2793)"
     x1="-5356.707"
     y1="2692.2788"
     x2="-5277.7202"
     y2="2692.2788" /><radialGradient
     xlink:href="#SVGID_00000014608546451841832980000010171683437493203106_"
     id="radialGradient646"
     gradientUnits="userSpaceOnUse"
     gradientTransform="matrix(1,-0.0043,0.0043,1,5141.8965,-2578.2793)"
     cx="-5285.0088"
     cy="2703.1882"
     r="96.885803" /><linearGradient
     xlink:href="#SVGID_00000071537930183633145760000008778977307268831148_"
     id="linearGradient647"
     gradientUnits="userSpaceOnUse"
     gradientTransform="matrix(1,-0.0043,0.0043,1,5141.8965,-2578.2793)"
     x1="-5341.814"
     y1="2635.3738"
     x2="-5344.6045"
     y2="2794.8999" /><radialGradient
     xlink:href="#SVGID_00000180355824711984642450000005110864937577443722_"
     id="radialGradient647"
     gradientUnits="userSpaceOnUse"
     gradientTransform="matrix(1,-0.0043,0.0043,1,5141.8965,-2578.2793)"
     cx="-5358.5161"
     cy="2707.7473"
     r="66.513802" /><radialGradient
     xlink:href="#SVGID_00000044889801558223860350000010937264717696917431_"
     id="radialGradient648"
     gradientUnits="userSpaceOnUse"
     gradientTransform="matrix(1,-0.0043,0.0043,1,5141.8965,-2578.2793)"
     cx="-5323.5342"
     cy="2612.209"
     r="11.3945" /><linearGradient
     xlink:href="#SVGID_00000111179978670547599270000011309406884633297796_"
     id="linearGradient648"
     gradientUnits="userSpaceOnUse"
     gradientTransform="translate(-233.64792,29.902584)"
     x1="49.253399"
     y1="188.25259"
     x2="80.195198"
     y2="188.25259" /><radialGradient
     xlink:href="#SVGID_00000001648301810914467850000012328724145805963912_"
     id="radialGradient649"
     gradientUnits="userSpaceOnUse"
     gradientTransform="matrix(1,-0.0043,0.0043,1,5141.8965,-2578.2793)"
     cx="-5331.1973"
     cy="2761.9001"
     r="11.8413" /><radialGradient
     xlink:href="#SVGID_00000022555702826783603900000003075998037846055318_"
     id="radialGradient650"
     gradientUnits="userSpaceOnUse"
     gradientTransform="matrix(1,-0.0043,0.0043,1,5141.8965,-2578.2793)"
     cx="-5312.9741"
     cy="2758.573"
     r="9.9493999" /><radialGradient
     xlink:href="#SVGID_00000139989071395264287950000003240155157551249311_"
     id="radialGradient651"
     gradientUnits="userSpaceOnUse"
     gradientTransform="matrix(1,-0.0043,0.0043,1,5141.8965,-2578.2793)"
     cx="-5322.394"
     cy="2770.3784"
     r="15.2068" /><radialGradient
     xlink:href="#radialGradient658"
     id="radialGradient652"
     gradientUnits="userSpaceOnUse"
     gradientTransform="matrix(1,-0.0043,0.0043,1,5141.8965,-2578.2793)"
     cx="-5320.5352"
     cy="2753.9746"
     r="56.123402" /><radialGradient
     xlink:href="#radialGradient655"
     id="radialGradient653"
     gradientUnits="userSpaceOnUse"
     gradientTransform="matrix(1,-0.0043,0.0043,1,5141.8965,-2578.2793)"
     cx="-5321.9238"
     cy="2735.2812"
     r="73.681099" /><radialGradient
     xlink:href="#SVGID_00000093857261418676678710000008308284877071209366_"
     id="radialGradient654"
     gradientUnits="userSpaceOnUse"
     gradientTransform="matrix(1,-0.0043,0.0043,1,5141.8965,-2578.2793)"
     cx="-5322.2666"
     cy="2759.8386"
     r="22.1208" /></defs>
<g
   id="g654"
   transform="translate(22046.192,-2177.9253)"><g
     id="g507"
     transform="translate(20.25,-8)"><g
       id="g658"
       transform="translate(36.062446,-31.112698)"><path
         style="fill:#e7e3dd"
         d="m -205.95592,222.91359 c 2.544,-3.903 8.433,-12.415 8.433,-12.415 l -8.127,-43.111 c 0,0 -16.742,19.148 -19.968,25.56 0,0 -0.808,1.392 -0.683,3.722 0.128,2.322 6.773,33.923 12.883,48.782 6.109,14.857 6.974,16.594 8.174,17.289 1.207,0.693 0.981,-1.409 0.787,-3.846 -0.193,-2.435 -4.042,-32.075 -1.499,-35.981 z"
         id="path14" /><path
         style="fill:url(#linearGradient622)"
         d="m -206.01392,222.87959 c 1.392,-2.08 2.803,-4.148 4.18,-6.239 l 2.071,-3.132 2.044,-3.143 -0.034,0.177 -2.252,-10.74 c -0.764,-3.575 -1.506,-7.153 -2.224,-10.742 -0.72,-3.583 -1.408,-7.172 -2.102,-10.76 -0.704,-3.589 -1.371,-7.185 -2.048,-10.779 l 1.292,0.352 c -4.007,4.61 -7.993,9.255 -11.825,14.012 -1.911,2.381 -3.803,4.775 -5.589,7.238 -0.435,0.618 -0.886,1.233 -1.291,1.866 l -0.619,0.946 -0.558,0.965 -0.141,0.241 c -0.066,0.117 -0.086,0.17 -0.122,0.24 -0.063,0.143 -0.136,0.308 -0.187,0.479 -0.118,0.328 -0.205,0.678 -0.262,1.029 -0.12,0.699 -0.176,1.434 -0.079,2.146 0.195,1.482 0.475,2.977 0.759,4.484 0.278,1.501 0.578,3.003 0.88,4.503 0.63,2.989 1.244,5.988 1.953,8.962 0.69,2.98 1.432,5.948 2.19,8.913 0.793,2.952 1.601,5.903 2.51,8.824 0.45,1.457 0.899,2.919 1.405,4.362 l 0.74,2.169 0.79,2.147 c 0.254,0.719 0.54,1.426 0.829,2.129 0.288,0.709 0.563,1.412 0.864,2.116 l 1.817,4.217 c 1.225,2.804 2.412,5.621 3.679,8.389 0.319,0.685 0.641,1.375 0.988,2.033 0.342,0.646 0.719,1.321 1.148,1.708 0.38,1.224 0.313,-1.188 0.191,-2.524 -0.256,-3.01 -0.617,-6.08 -0.853,-9.129 -0.259,-3.052 -0.488,-6.108 -0.677,-9.165 -0.192,-3.063 -0.313,-6.122 -0.366,-9.186 -0.026,-1.533 -0.009,-3.064 0.054,-4.598 0.045,-0.766 0.094,-1.532 0.207,-2.296 0.113,-0.752 0.239,-1.531 0.638,-2.214 z m 0.117,0.071 c -0.369,0.648 -0.496,1.423 -0.603,2.168 -0.107,0.756 -0.149,1.522 -0.188,2.28 -0.068,1.525 -0.024,3.057 0.028,4.584 0.113,3.055 0.396,6.104 0.693,9.145 0.302,3.042 0.663,6.083 1.044,9.117 l 0.572,4.55 c 0.181,1.516 0.41,3.028 0.533,4.576 0.065,0.771 0.144,1.532 0.124,2.366 -0.008,0.214 -0.019,0.43 -0.069,0.667 -0.03,0.13 -0.048,0.242 -0.119,0.398 -0.048,0.134 -0.162,0.326 -0.342,0.475 -0.203,0.167 -0.471,0.23 -0.709,0.214 -0.107,-0.016 -0.219,-0.04 -0.326,-0.073 -0.083,-0.029 -0.099,-0.039 -0.148,-0.063 l -0.065,-0.032 -0.09,-0.043 -0.038,-0.026 -0.151,-0.099 c -0.107,-0.058 -0.194,-0.145 -0.286,-0.219 -0.356,-0.324 -0.613,-0.682 -0.831,-1.025 -0.219,-0.346 -0.413,-0.695 -0.593,-1.048 -0.364,-0.695 -0.688,-1.393 -1.014,-2.094 -1.248,-2.815 -2.402,-5.647 -3.531,-8.499 l -1.688,-4.271 c -0.279,-0.717 -0.533,-1.443 -0.805,-2.162 -0.272,-0.721 -0.533,-1.442 -0.765,-2.175 l -0.729,-2.183 -0.674,-2.203 c -0.459,-1.461 -0.866,-2.939 -1.298,-4.403 -0.436,-1.471 -0.813,-2.956 -1.234,-4.431 l -1.192,-4.436 c -0.781,-2.964 -1.552,-5.924 -2.275,-8.902 -0.731,-2.974 -1.464,-5.944 -2.159,-8.932 l -1.002,-4.487 c -0.325,-1.49 -0.656,-3 -0.907,-4.543 -0.126,-0.802 -0.093,-1.617 0.023,-2.423 0.055,-0.404 0.148,-0.802 0.277,-1.196 0.06,-0.201 0.135,-0.392 0.222,-0.594 0.047,-0.102 0.106,-0.227 0.135,-0.274 l 0.142,-0.263 0.57,-1.032 0.616,-0.984 c 0.406,-0.665 0.852,-1.293 1.284,-1.932 1.753,-2.533 3.625,-4.967 5.524,-7.38 1.898,-2.411 3.832,-4.788 5.787,-7.146 1.96,-2.36 3.92,-4.709 5.941,-7.021 l 1.007,-1.148 0.283,1.5 c 0.685,3.594 1.361,7.186 2.019,10.779 0.662,3.596 1.327,7.192 1.959,10.791 0.639,3.602 1.252,7.206 1.846,10.814 l 1.809,10.82 0.016,0.105 -0.052,0.071 -2.169,3.064 -2.15,3.075 c -1.431,2.05 -2.833,4.126 -4.252,6.183 z"
         id="path20" /><path
         style="fill:none"
         d="m -205.95592,222.91359 c 2.544,-3.903 8.433,-12.415 8.433,-12.415 l -8.127,-43.111 c 0,0 -16.742,19.148 -19.968,25.56 0,0 -0.808,1.392 -0.683,3.722 0.128,2.322 6.773,33.923 12.883,48.782 6.109,14.857 6.974,16.594 8.174,17.289 1.207,0.693 0.981,-1.409 0.787,-3.846 -0.193,-2.435 -4.042,-32.075 -1.499,-35.981 z"
         id="path21" /><path
         style="fill:url(#SVGID_00000042706979936706459720000010204650276072635031_)"
         d="m -205.95592,222.91359 c 2.544,-3.903 8.433,-12.415 8.433,-12.415 l -5.821,-30.889 c -4.483,4.729 -7.985,10.132 -7.985,10.132 0.243,2.327 2.862,17.2 2.862,17.2 l -2.317,1.639 c -0.469,-1.396 -2.126,-8.365 -2.126,-8.365 l -3.478,2.338 2.141,11.62 -2.781,2.573 c -1.649,-5.578 -5.206,-20.909 -5.206,-20.909 -0.858,0.37 -2.425,1.785 -3.716,3.041 1.455,7.867 7.2,33.602 12.533,46.572 6.109,14.857 6.974,16.594 8.174,17.289 1.207,0.693 0.981,-1.409 0.787,-3.846 -0.194,-2.434 -4.043,-32.074 -1.5,-35.98 z"
         id="path29" /><path
         style="fill:url(#radialGradient623)"
         d="m -203.30792,179.63759 c -0.672,0.847 -1.354,1.676 -2.033,2.512 l -1.021,1.256 -0.958,1.293 -0.954,1.288 -0.477,0.643 -0.453,0.67 -0.915,1.321 c -0.313,0.438 -0.594,0.887 -0.888,1.332 l 0.061,-0.25 0.722,4.289 c 0.231,1.432 0.461,2.862 0.664,4.295 l 1.28,8.621 0.021,0.125 -0.097,0.063 -2.342,1.605 -0.176,0.122 -0.051,-0.194 -0.546,-2.096 -0.567,-2.088 c -0.192,-0.695 -0.351,-1.397 -0.534,-2.093 l -0.548,-2.088 0.323,0.126 -3.425,2.413 0.125,-0.305 c 0.409,1.932 0.787,3.861 1.176,5.793 l 1.127,5.796 0.049,0.248 -0.188,0.18 -2.761,2.59 -0.6,0.563 -0.208,-0.784 c -0.468,-1.74 -0.948,-3.476 -1.399,-5.22 -0.226,-0.87 -0.421,-1.745 -0.64,-2.619 l -0.611,-2.626 c -0.409,-1.752 -0.794,-3.503 -1.186,-5.257 l -1.11,-5.275 0.3,0.148 c -0.167,0.087 -0.333,0.156 -0.497,0.271 -0.171,0.097 -0.332,0.203 -0.496,0.321 -0.324,0.222 -0.641,0.469 -0.949,0.719 -0.625,0.503 -1.229,1.032 -1.826,1.564 l -0.066,-0.067 c 0.554,-0.587 1.119,-1.157 1.711,-1.704 0.292,-0.277 0.6,-0.548 0.915,-0.798 0.157,-0.136 0.317,-0.258 0.492,-0.375 0.159,-0.125 0.357,-0.227 0.545,-0.329 l 0.223,-0.128 0.074,0.282 2.716,10.421 0.681,2.605 c 0.223,0.867 0.436,1.742 0.672,2.605 0.486,1.721 0.932,3.453 1.399,5.184 l -0.808,-0.227 2.796,-2.544 -0.136,0.422 -1.017,-5.815 c -0.326,-1.945 -0.663,-3.886 -0.966,-5.833 l -0.033,-0.2 0.156,-0.103 3.527,-2.267 0.264,-0.164 0.063,0.289 0.472,2.108 c 0.171,0.695 0.319,1.402 0.503,2.096 l 0.534,2.086 0.559,2.075 -0.23,-0.073 2.299,-1.67 -0.078,0.188 -0.85,-4.277 -0.428,-2.137 c -0.138,-0.716 -0.285,-1.428 -0.406,-2.142 -0.25,-1.439 -0.487,-2.877 -0.715,-4.315 l -0.663,-4.316 -0.019,-0.138 0.078,-0.112 c 0.309,-0.446 0.611,-0.898 0.938,-1.334 l 0.957,-1.3 0.489,-0.65 0.514,-0.63 1.026,-1.262 1.022,-1.259 c 0.356,-0.406 0.735,-0.786 1.101,-1.181 0.738,-0.781 1.474,-1.571 2.224,-2.342 z"
         id="path38" /><path
         style="opacity:0.7;fill:url(#linearGradient623)"
         d="m -205.95592,222.91359 c 2.544,-3.903 8.433,-12.415 8.433,-12.415 l -8.127,-43.111 c 0,0 -1.616,1.847 -3.944,4.592 -0.094,7.364 0.578,14.5 3.136,33.091 0.368,2.67 1.423,6.97 -1.651,12.564 -1.885,3.436 -3.592,5.066 -3.063,9.007 0.479,3.564 1.523,8.568 2.064,11.93 1.228,7.576 2.371,12.393 3.352,21.534 0.058,0.548 -1.266,-0.972 -1.749,-0.734 1.142,2.407 1.658,3.023 2.263,3.369 1.207,0.693 0.981,-1.409 0.787,-3.846 -0.195,-2.435 -4.044,-32.075 -1.501,-35.981 z"
         id="path41" /><path
         style="fill:url(#radialGradient624)"
         d="m -210.30992,174.85559 c 0,0 -10.487,12.603 -12.795,16.485 -2.31,3.889 -2.146,6.21 -0.877,12.408 1.265,6.2 7.733,32.057 11.806,41.657 0,0 -9.136,-32.985 -10.416,-43.214 -1.287,-10.225 1.196,-10.39 12.282,-27.336 z"
         id="path43" /><path
         style="fill:#e7e3dd"
         d="m -130.88892,222.59859 c -2.576,-3.886 -8.545,-12.346 -8.545,-12.346 l 7.764,-43.185 c 0,0 16.902,19.012 20.186,25.392 0,0 0.819,1.386 0.712,3.713 -0.105,2.324 -6.482,33.981 -12.463,48.89 -5.984,14.91 -6.831,16.658 -8.027,17.361 -1.201,0.704 -0.993,-1.4 -0.818,-3.836 0.167,-2.438 3.764,-32.112 1.191,-35.989 z"
         id="path44" /><path
         style="fill:url(#linearGradient624)"
         d="m -130.95092,222.63259 c -1.437,-2.048 -2.855,-4.108 -4.305,-6.145 l -2.177,-3.059 -2.196,-3.047 -0.053,-0.07 0.016,-0.104 1.716,-10.834 c 0.564,-3.612 1.149,-7.225 1.752,-10.83 0.60099,-3.604 1.24199,-7.206 1.86899,-10.811 0.625,-3.597 1.273,-7.195 1.927,-10.797 l 0.271,-1.5 1.016,1.14 c 2.037,2.297 4.022,4.629 6,6.973 1.975,2.339 3.931,4.701 5.851,7.099 1.917,2.392 3.809,4.81 5.584,7.333 0.438,0.629 0.89,1.254 1.302,1.918 l 0.628,0.977 0.576,1.029 0.144,0.258 c 0.03,0.048 0.093,0.173 0.135,0.276 0.093,0.201 0.166,0.389 0.229,0.592 0.134,0.394 0.229,0.79 0.292,1.19 0.119,0.806 0.159,1.623 0.04,2.424 -0.237,1.548 -0.554,3.057 -0.863,4.556 l -0.975,4.49 c -0.664,2.991 -1.367,5.971 -2.078,8.951 -0.695,2.984 -1.439,5.95 -2.197,8.921 l -1.15,4.446 c -0.413,1.478 -0.776,2.963 -1.198,4.44 -0.419,1.47 -0.817,2.95 -1.263,4.417 l -0.655,2.204 -0.707,2.192 c -0.227,0.732 -0.484,1.454 -0.748,2.182 -0.267,0.719 -0.517,1.451 -0.79,2.165 l -1.65,4.285 c -1.104,2.861 -2.229,5.704 -3.459,8.527 -0.317,0.705 -0.631,1.409 -0.995,2.11 -0.178,0.352 -0.365,0.698 -0.58,1.048 -0.216,0.351 -0.471,0.706 -0.825,1.031 -0.09,0.078 -0.18,0.165 -0.283,0.227 l -0.154,0.097 -0.035,0.028 -0.087,0.041 -0.063,0.031 c -0.055,0.024 -0.066,0.036 -0.148,0.063 -0.106,0.039 -0.216,0.063 -0.328,0.078 -0.234,0.017 -0.506,-0.042 -0.71,-0.21 -0.181,-0.145 -0.294,-0.337 -0.346,-0.47 -0.07,-0.151 -0.088,-0.269 -0.122,-0.394 -0.049,-0.242 -0.065,-0.458 -0.076,-0.673 -0.027,-0.828 0.045,-1.592 0.1,-2.36 0.116,-1.554 0.333,-3.065 0.5,-4.587 l 0.538,-4.553 c 0.351,-3.038 0.687,-6.08 0.962,-9.124 0.267,-3.046 0.528,-6.095 0.616,-9.147 0.039,-1.531 0.071,-3.064 -0.01,-4.587 -0.05,-0.76 -0.095,-1.523 -0.215,-2.276 -0.109,-0.746 -0.248,-1.514 -0.62299,-2.161 z m 0.116,-0.074 c 0.406,0.684 0.538,1.457 0.66,2.213 0.118,0.761 0.173,1.527 0.223,2.291 0.079,1.532 0.109,3.066 0.094,4.597 -0.026,3.06 -0.125,6.13 -0.289,9.186 -0.162,3.06 -0.363,6.117 -0.594,9.174 -0.212,3.049 -0.547,6.121 -0.778,9.136 -0.112,1.338 -0.158,3.749 0.212,2.521 0.426,-0.392 0.794,-1.066 1.133,-1.715 0.341,-0.662 0.659,-1.352 0.971,-2.042 1.242,-2.779 2.409,-5.61 3.608,-8.425 l 1.78,-4.229 c 0.296,-0.703 0.563,-1.415 0.847,-2.122 0.281,-0.702 0.563,-1.414 0.812,-2.134 l 0.773,-2.158 0.719,-2.173 c 0.495,-1.446 0.928,-2.914 1.37,-4.375 0.884,-2.932 1.669,-5.888 2.433,-8.846 0.734,-2.971 1.444,-5.947 2.116,-8.928 0.681,-2.984 1.273,-5.986 1.87,-8.983 0.295,-1.506 0.582,-3.002 0.85,-4.509 0.268,-1.508 0.532,-3.005 0.718,-4.487 0.088,-0.714 0.025,-1.449 -0.097,-2.15 -0.061,-0.352 -0.151,-0.695 -0.273,-1.026 -0.049,-0.17 -0.121,-0.328 -0.189,-0.477 -0.032,-0.07 -0.057,-0.122 -0.125,-0.235 l -0.14,-0.242 -0.565,-0.959 -0.628,-0.94 c -0.406,-0.634 -0.865,-1.243 -1.312,-1.858 -1.806,-2.447 -3.716,-4.826 -5.643,-7.192 -3.878,-4.723 -7.903,-9.33 -11.945,-13.903 l 1.288,-0.367 c -0.644,3.599 -1.287,7.2 -1.957,10.797 -0.662,3.596 -1.318,7.186 -2.015,10.78 -0.68,3.59 -1.397,7.172 -2.126,10.759 l -2.166,10.758 -0.038,-0.178 2.077,3.127 2.1,3.112 c 1.39,2.077 2.818,4.134 4.226,6.202 z"
         id="path50" /><path
         style="fill:none"
         d="m -130.88892,222.59859 c -2.576,-3.886 -8.545,-12.346 -8.545,-12.346 l 7.764,-43.185 c 0,0 16.902,19.012 20.186,25.392 0,0 0.819,1.386 0.712,3.713 -0.105,2.324 -6.482,33.981 -12.463,48.89 -5.984,14.91 -6.831,16.658 -8.027,17.361 -1.201,0.704 -0.993,-1.4 -0.818,-3.836 0.167,-2.438 3.764,-32.112 1.191,-35.989 z"
         id="path51" /><path
         style="fill:url(#SVGID_00000061443804666410584000000007082341443046678922_)"
         d="m -130.88892,222.59859 c -2.576,-3.886 -8.545,-12.346 -8.545,-12.346 l 5.562,-30.941 c 4.523,4.696 8.073,10.067 8.073,10.067 -0.228,2.329 -2.72,17.219 -2.72,17.219 l 2.335,1.623 c 0.458,-1.399 2.057,-8.387 2.057,-8.387 l 3.5,2.313 -2.045,11.635 2.801,2.547 c 1.602,-5.59 5.025,-20.95 5.025,-20.95 0.863,0.365 2.445,1.767 3.744,3.008 -1.391,7.883 -6.912,33.665 -12.134,46.677 -5.984,14.91 -6.831,16.658 -8.027,17.361 -1.201,0.704 -0.993,-1.4 -0.818,-3.836 0.168,-2.439 3.765,-32.113 1.192,-35.99 z"
         id="path59" /><path
         style="fill:url(#SVGID_00000057864130058348445920000004426363143880072083_)"
         d="m -133.83592,179.28059 c 0.758,0.767 1.5,1.546 2.247,2.322 0.367,0.396 0.75,0.771 1.113,1.172 l 1.031,1.252 1.035,1.251 0.522,0.625 0.489,0.646 0.973,1.293 c 0.325,0.435 0.634,0.881 0.947,1.326 l 0.086,0.111 -0.024,0.134 -0.625,4.328 c -0.22,1.438 -0.439,2.877 -0.684,4.318 -0.109,0.72 -0.25,1.428 -0.388,2.148 l -0.404,2.138 -0.813,4.284 -0.078,-0.188 2.309,1.65 -0.227,0.078 0.542,-2.08 0.511,-2.09 c 0.183,-0.696 0.324,-1.399 0.485,-2.101 l 0.456,-2.11 0.06,-0.292 0.263,0.164 3.544,2.236 0.164,0.102 -0.03,0.202 c -0.29,1.947 -0.606,3.889 -0.917,5.835 l -0.968,5.825 -0.146,-0.417 2.826,2.52 -0.809,0.232 c 0.45,-1.732 0.886,-3.472 1.354,-5.196 0.229,-0.862 0.431,-1.743 0.651,-2.614 l 0.655,-2.608 2.627,-10.445 0.066,-0.281 0.233,0.13 c 0.187,0.102 0.382,0.195 0.547,0.323 0.172,0.115 0.335,0.235 0.493,0.368 0.323,0.25 0.625,0.516 0.923,0.789 0.594,0.545 1.17,1.109 1.728,1.689 l -0.064,0.071 c -0.605,-0.526 -1.215,-1.048 -1.84,-1.549 -0.315,-0.25 -0.632,-0.487 -0.959,-0.712 -0.159,-0.117 -0.327,-0.219 -0.496,-0.315 -0.167,-0.114 -0.336,-0.179 -0.503,-0.265 l 0.3,-0.154 -1.065,5.285 c -0.373,1.757 -0.746,3.511 -1.142,5.268 l -0.589,2.629 c -0.207,0.876 -0.399,1.757 -0.617,2.624 -0.434,1.752 -0.902,3.49 -1.352,5.238 l -0.204,0.784 -0.604,-0.563 -2.781,-2.564 -0.191,-0.175 0.049,-0.247 1.079,-5.811 c 0.367,-1.932 0.729,-3.868 1.123,-5.801 l 0.131,0.305 -3.451,-2.386 0.323,-0.129 -0.526,2.095 c -0.177,0.701 -0.328,1.396 -0.519,2.096 l -0.551,2.093 -0.524,2.098 -0.051,0.195 -0.18,-0.117 -2.354,-1.587 -0.094,-0.063 0.019,-0.12 1.205,-8.632 c 0.195,-1.438 0.409,-2.874 0.626,-4.306 l 0.687,-4.292 0.064,0.249 c -0.298,-0.443 -0.583,-0.889 -0.901,-1.327 l -0.922,-1.313 -0.464,-0.665 -0.481,-0.636 -0.969,-1.282 -0.967,-1.281 -1.028,-1.249 c -0.688,-0.829 -1.38,-1.652 -2.057,-2.494 z"
         id="path68" /><path
         style="opacity:0.7;fill:url(#linearGradient625)"
         d="m -130.88892,222.59859 c -2.576,-3.886 -8.545,-12.346 -8.545,-12.346 l 7.764,-43.185 c 0,0 1.635,1.838 3.98,4.564 0.155,7.359 -0.448,14.503 -2.849,33.113 -0.347,2.673 -1.368,6.985 1.756,12.553 1.916,3.416 3.639,5.029 3.141,8.978 -0.453,3.57 -1.447,8.582 -1.968,11.946 -1.16,7.589 -2.263,12.412 -3.161,21.561 -0.055,0.548 1.256,-0.979 1.744,-0.75 -1.121,2.422 -1.636,3.039 -2.236,3.391 -1.201,0.704 -0.993,-1.4 -0.818,-3.836 0.168,-2.438 3.765,-32.112 1.192,-35.989 z"
         id="path71" /><path
         style="fill:url(#radialGradient625)"
         d="m -126.95092,174.50159 c 0,0 10.598,12.512 12.937,16.379 2.343,3.864 2.197,6.192 0.985,12.395 -1.216,6.208 -7.462,32.125 -11.449,41.757 0,0 8.854,-33.063 10.048,-43.3 1.195,-10.24 -1.284,-10.383 -12.521,-27.231 z"
         id="path73" /><path
         style="fill:url(#linearGradient626)"
         d="m -168.21992,73.435585 c -0.307,0 -0.614,0.033 -0.923,0.079 -0.31,-0.046 -0.618,-0.071 -0.927,-0.071 -16.122,0.071 -40.111,45.751995 -39.313,87.919005 0.523,27.715 7.738,52.584 12.618,66.38 8.471,3.717 18.92,5.896 30.226,5.843 9.383,-0.033 18.172,-1.605 25.714,-4.307 4.749,-13.403 12.368,-39.313 12.669,-68.262 0.441,-42.17001 -23.938,-87.648005 -40.064,-87.581005 z"
         id="path80" /><path
         style="fill:url(#linearGradient627)"
         d="m -173.94392,77.957585 c 0,0 2.531,-31.87 4.541,-39.32 0,0 4.701,29.983 5.097,38.351 0,-0.001 -4.282,3.272 -9.638,0.969 z"
         id="path88" /><path
         style="fill:url(#linearGradient628)"
         d="m -165.22292,67.845585 c -1.479,-11.984 -4.18,-29.209 -4.18,-29.209 -1.273,4.715 -2.752,19.212 -3.669,29.225 2.596,-1.796 5.261,-1.368 7.849,-0.016 z"
         id="path93" /><path
         style="fill:url(#linearGradient629)"
         d="m -173.99092,77.955585 c 0.021,-0.826 0.059,-1.65 0.102,-2.477 l 0.13,-2.473 0.323,-4.941 0.197,-2.471 c 0.064,-0.826 0.133,-1.646 0.21,-2.467 0.146,-1.645 0.304,-3.287 0.481,-4.929 0.182,-1.648 0.386,-3.284 0.615,-4.918 0.222,-1.635 0.464,-3.273 0.706,-4.906 l 0.751,-4.898 c 0.128,-0.818 0.26,-1.634 0.403,-2.448 0.123,-0.818 0.327,-1.623 0.506,-2.436 0.017,-0.094 0.104,-0.148 0.197,-0.127 0.068,0.015 0.117,0.069 0.132,0.134 l 0.002,0.009 1.645,9.538 c 0.521,3.182 1.02,6.369 1.487,9.567 0.232,1.595 0.482,3.188 0.686,4.786 0.217,1.601 0.414,3.203 0.612,4.806 0.182,1.604 0.339,3.214 0.5,4.819 0.089,0.802 0.128,1.611 0.188,2.424 l 0.158,2.421 0.003,0.01 c 0.009,0.115 -0.049,0.225 -0.137,0.287 -0.195,0.136 -0.377,0.245 -0.571,0.352 -0.19,0.109 -0.382,0.206 -0.584,0.3 -0.386,0.188 -0.793,0.352 -1.199,0.493 l -0.622,0.192 -0.629,0.152 c -0.211,0.044 -0.425,0.075 -0.636,0.109 -0.212,0.044 -0.433,0.047 -0.644,0.076 -0.212,0.017 -0.428,0.033 -0.646,0.03 -0.217,-0.008 -0.434,0.003 -0.646,-0.014 l -0.64,-0.063 c -0.213,-0.008 -0.421,-0.07 -0.635,-0.104 -0.209,-0.044 -0.423,-0.063 -0.624,-0.139 l -0.61,-0.179 c -0.208,-0.051 -0.403,-0.15 -0.601,-0.227 l -0.582,-0.241 c -0.016,-0.009 -0.031,-0.024 -0.026,-0.045 z m 0.098,-0.03 0.567,0.185 c 0.199,0.063 0.391,0.137 0.601,0.173 l 0.61,0.14 c 0.202,0.055 0.411,0.055 0.618,0.087 0.204,0.023 0.407,0.063 0.618,0.063 l 0.621,0.016 c 0.205,0 0.409,-0.023 0.614,-0.036 0.211,-0.004 0.412,-0.026 0.617,-0.058 0.203,-0.031 0.41,-0.047 0.607,-0.1 l 0.604,-0.135 0.594,-0.172 0.575,-0.211 c 0.379,-0.155 0.753,-0.326 1.113,-0.523 0.177,-0.101 0.357,-0.203 0.524,-0.313 0.171,-0.101 0.345,-0.222 0.489,-0.331 l -0.136,0.292 -0.235,-2.395 c -0.08,-0.798 -0.143,-1.595 -0.259,-2.397 -0.21,-1.596 -0.415,-3.191 -0.609,-4.787 -0.223,-1.593 -0.442,-3.19 -0.645,-4.79 l -0.631,-4.795 -1.274,-9.586 -0.617,-4.797 -0.321,-2.396 c -0.108,-0.803 -0.206,-1.601 -0.328,-2.399 l 0.334,0.022 c -0.184,0.797 -0.399,1.587 -0.535,2.4 -0.149,0.813 -0.311,1.621 -0.422,2.435 -0.115,0.818 -0.244,1.631 -0.334,2.451 -0.097,0.816 -0.205,1.635 -0.278,2.455 -0.17,1.643 -0.324,3.283 -0.47,4.928 -0.146,1.642 -0.279,3.284 -0.443,4.926 -0.328,3.284 -0.676,6.567 -1.024,9.849 l -0.554,4.918 -0.291,2.458 z"
         id="path100" /><path
         style="fill:url(#SVGID_00000102515420411082964020000004900355102387146939_)"
         d="m -193.56092,113.28758 c -2.84,0.748 -5.59,1.603 -8.225,2.565 -1.414,4.134 -2.671,8.43601 -3.743,12.84501 2.86,-1.203 5.873,-2.277 9.012,-3.213 0.866,-4.19901 1.858,-8.28201 2.956,-12.19701 z"
         id="path108" /><path
         style="fill:url(#linearGradient630)"
         d="m -196.51692,125.48359 c -3.139,0.936 -6.151,2.01 -9.012,3.213 -0.908,3.753 -1.68,7.59 -2.285,11.46 2.918,-0.985 6.006,-1.874 9.247,-2.648 0.551,-4.076 1.243,-8.1 2.05,-12.025 z"
         id="path114" /><path
         style="fill:url(#linearGradient631)"
         d="m -141.13792,124.23259 c 2.938,0.725 5.78,1.569 8.505,2.519 -1.141,-4.343 -2.472,-8.56301 -3.939,-12.62001 -2.48,-0.736 -5.037,-1.386 -7.666,-1.945 1.138,3.859 2.178,7.896 3.1,12.04601 z"
         id="path122" /><path
         style="fill:url(#SVGID_00000101820093184136763720000005826316735510962359_)"
         d="m -198.56692,137.50759 c -3.241,0.774 -6.329,1.663 -9.247,2.648 -0.693,4.416 -1.171,8.882 -1.399,13.345 2.996,-1.021 6.123,-1.938 9.368,-2.744 0.249,-4.44 0.679,-8.873 1.278,-13.249 z"
         id="path130" /><path
         style="fill:url(#linearGradient632)"
         d="m -138.88092,136.47359 c 3.066,0.603 6.022,1.308 8.844,2.098 -0.702,-3.998 -1.577,-7.954 -2.596,-11.82 -2.725,-0.949 -5.566,-1.794 -8.505,-2.519 0.876,3.987 1.637,8.084 2.257,12.241 z"
         id="path136" /><path
         style="fill:url(#linearGradient633)"
         d="m -138.88092,136.47359 c 0.649,4.35 1.145,8.771 1.449,13.205 3.111,0.648 6.127,1.394 9.037,2.243 -0.312,-4.472 -0.87,-8.94 -1.643,-13.351 -2.821,-0.789 -5.777,-1.494 -8.843,-2.097 z"
         id="path144" /><path
         style="fill:url(#linearGradient634)"
         d="m -141.13792,124.23259 c -0.922,-4.15001 -1.962,-8.18801 -3.1,-12.04701 -3.218,-0.681 -6.54,-1.215 -9.948,-1.598 0.738,3.708 1.421,7.591 2.028,11.594 3.796,0.50101 7.478,1.19001 11.02,2.05101 z"
         id="path150" /><path
         style="fill:url(#SVGID_00000120546225321090191190000017742501433104320662_)"
         d="m -187.22792,123.21459 c -3.203,0.62 -6.305,1.384 -9.289,2.27 -0.807,3.925 -1.499,7.949 -2.05,12.024 3.163,-0.753 6.473,-1.399 9.896,-1.926 0.395,-4.211 0.877,-8.347 1.443,-12.368 z"
         id="path158" /><path
         style="fill:url(#linearGradient635)"
         d="m -185.32892,111.50258 c -2.817,0.487 -5.566,1.087 -8.232,1.785 -1.098,3.915 -2.09,7.998 -2.956,12.19601 2.984,-0.886 6.086,-1.649 9.289,-2.27 0.559,-4.03901 1.198,-7.96301 1.899,-11.71101 z"
         id="path164" /><path
         style="fill:url(#linearGradient636)"
         d="m -152.15892,122.18158 c 0.618,4.06801 1.157,8.26401 1.601,12.53201 4.04,0.431 7.942,1.02 11.677,1.76 -0.619,-4.157 -1.381,-8.254 -2.257,-12.241 -3.542,-0.861 -7.224,-1.55 -11.021,-2.05101 z"
         id="path172" /><path
         style="fill:url(#linearGradient637)"
         d="m -188.67092,135.58259 c -3.423,0.526 -6.732,1.173 -9.896,1.926 -0.599,4.376 -1.029,8.809 -1.277,13.249 3.315,-0.821 6.746,-1.523 10.283,-2.103 0.185,-4.392 0.489,-8.769 0.89,-13.072 z"
         id="path178" /><path
         style="fill:url(#linearGradient638)"
         d="m -149.52092,147.74259 c 4.158,0.478 8.201,1.125 12.089,1.937 -0.305,-4.434 -0.8,-8.855 -1.449,-13.205 -3.734,-0.74 -7.637,-1.329 -11.677,-1.76 0.448,4.287 0.802,8.65 1.037,13.028 z"
         id="path184" /><path
         style="fill:url(#linearGradient639)"
         d="m -162.00992,133.95559 c 3.915,0.11 7.743,0.363 11.452,0.759 -0.443,-4.269 -0.982,-8.464 -1.601,-12.53201 -3.438,-0.45 -6.97,-0.742 -10.574,-0.859 0.275,4.09601 0.518,8.32501 0.723,12.63201 z"
         id="path190" /><path
         style="fill:url(#SVGID_00000036956949495125440790000014044212434307647388_)"
         d="m -162.73292,121.32258 c 3.604,0.117 7.137,0.409 10.574,0.859 -0.607,-4.003 -1.29,-7.886 -2.028,-11.594 -3.073,-0.345 -6.217,-0.563 -9.415,-0.649 0.314,3.638 0.607,7.451 0.869,11.384 z"
         id="path198" /><path
         style="fill:url(#linearGradient640)"
         d="m -177.18992,121.76758 c -3.438,0.331 -6.789,0.81501 -10.038,1.44601 -0.566,4.021 -1.048,8.157 -1.443,12.368 3.513,-0.545 7.145,-0.969 10.877,-1.256 0.164,-4.277 0.367,-8.485 0.604,-12.55801 z"
         id="path204" /><path
         style="fill:url(#SVGID_00000174593066738909255290000013306109283123284661_)"
         d="m -176.42092,110.33758 c -3.034,0.267 -6.007,0.66 -8.907,1.165 -0.701,3.748 -1.34,7.673 -1.899,11.71201 3.249,-0.631 6.601,-1.11501 10.038,-1.44601 0.228,-3.949 0.487,-7.777 0.768,-11.431 z"
         id="path212" /><path
         style="fill:url(#SVGID_00000168829598169022698780000001091595536368332477_)"
         d="m -188.67092,135.58259 c -0.4,4.304 -0.704,8.681 -0.89,13.072 3.695,-0.607 7.51,-1.063 11.403,-1.376 0.078,-4.359 0.202,-8.691 0.363,-12.952 -3.732,0.287 -7.364,0.711 -10.876,1.256 z"
         id="path220" /><path
         style="fill:url(#SVGID_00000163067204637527878700000011800566354096916875_)"
         d="m -162.00992,133.95559 c 0.2,4.249 0.363,8.572 0.477,12.919 4.095,0.125 8.104,0.42 12.012,0.868 -0.235,-4.378 -0.589,-8.741 -1.037,-13.028 -3.709,-0.396 -7.537,-0.649 -11.452,-0.759 z"
         id="path228" /><path
         style="fill:url(#linearGradient641)"
         d="m -177.79392,134.32659 c -0.161,4.261 -0.285,8.593 -0.363,12.952 3.688,-0.298 7.454,-0.461 11.285,-0.477 1.795,-0.009 3.575,0.018 5.34,0.072 -0.114,-4.347 -0.277,-8.67 -0.477,-12.919 -1.625,-0.046 -3.264,-0.066 -4.917,-0.06 -3.7,0.018 -7.326,0.165 -10.868,0.432 z"
         id="path234" /><path
         style="fill:url(#SVGID_00000014610989123409755000000012618568737826439345_)"
         d="m -166.98192,121.25558 c -3.468,0.015 -6.876,0.192 -10.208,0.513 -0.237,4.07301 -0.44,8.28101 -0.604,12.55901 3.542,-0.267 7.169,-0.414 10.867,-0.431 1.653,-0.007 3.292,0.014 4.917,0.06 -0.205,-4.307 -0.447,-8.536 -0.723,-12.63301 -1.405,-0.046 -2.823,-0.077 -4.249,-0.068 z"
         id="path242" /><path
         style="fill:url(#linearGradient642)"
         d="m -166.98192,121.25558 c 1.426,-0.009 2.844,0.022 4.249,0.067 -0.262,-3.933 -0.555,-7.746 -0.869,-11.384 -1.139,-0.028 -2.281,-0.039 -3.427,-0.036 -3.187,0.016 -6.32,0.164 -9.393,0.435 -0.28,3.654 -0.54,7.482 -0.769,11.431 3.333,-0.321 6.741,-0.499 10.209,-0.513 z"
         id="path248" /><path
         style="fill:url(#linearGradient643)"
         d="m -152.20892,84.563585 c -5.481,-6.981 -11.125,-11.148 -16.012,-11.128 -0.307,0 -0.614,0.033 -0.923,0.079 -0.31,-0.046 -0.618,-0.071 -0.927,-0.071 -4.636,0.018 -9.933,3.826 -15.095,10.234 4.522,-1.663 9.689,-2.619 15.191,-2.644 6.558,-0.027 12.664,1.279 17.766,3.53 z"
         id="path254" /><path
         style="fill:#e7c44a;fill-opacity:1"
         d="m -198.82892,221.61559 c 0.712,2.227 1.411,4.277 2.063,6.127 8.471,3.717 18.92,5.896 30.226,5.843 9.383,-0.033 18.172,-1.605 25.714,-4.307 0.625,-1.768 1.304,-3.764 2.009,-5.945 -7.978,3.17 -17.505,5.035 -27.746,5.077 -12.23,0.051 -23.464,-2.503 -32.266,-6.795 z"
         id="path262" /><path
         style="fill:url(#linearGradient644)"
         d="m -166.64592,208.65059 c -14.53,0.063 -27.788,-2.874 -37.809,-7.748 1.756,7.889 3.759,14.912 5.626,20.713 8.802,4.292 20.036,6.847 32.266,6.795 10.241,-0.042 19.769,-1.907 27.746,-5.077 1.844,-5.729 3.87,-12.804 5.661,-20.843 -9.36,3.825 -20.938,6.106 -33.49,6.16 z"
         id="path268" /><g
         style="opacity:0.7"
         id="g271"
         transform="translate(-233.64792,29.902584)">
					<path
   style="fill:#ba1a3f"
   d="m 36.016,177.398 c 0.085,-1.473 2.071,-1.462 2.216,-0.023 -0.071,1.649 -2.31,1.718 -2.216,0.023 z m 0.07,0.008 c 0.156,1.029 1.229,0.42 1.544,-0.023 0.043,-1.051 -1.569,-0.915 -1.544,0.023 z"
   id="path271" />
				</g><path
         style="fill:#ff87b2"
         d="m -196.38192,207.10559 c -0.961,-0.579 -0.518,0.571 -0.708,0.563 -0.476,-0.018 -0.239,-0.847 0.052,-0.977 0.514,-0.23 0.672,0.422 0.656,0.414 -0.436,-0.261 0.266,0.162 0,0 z"
         id="path272" /><g
         style="opacity:0.7"
         id="g273"
         transform="translate(-233.64792,29.902584)">
					<path
   style="fill:#ba1a3f"
   d="m 41.097,178.843 c 0.095,-1.475 2.09,-1.46 2.219,-0.037 0.146,1.63 -2.305,1.758 -2.219,0.037 z m 0.074,0.008 c 0.123,0.805 1.439,0.719 1.545,-0.056 0.027,-0.842 -1.456,-1.016 -1.545,0.056 z"
   id="path273" />
				</g><path
         style="fill:#ff87b2"
         d="m -191.29992,208.54459 c -0.961,-0.578 -0.51,0.576 -0.707,0.567 -0.475,-0.015 -0.235,-0.857 0.052,-0.977 0.514,-0.231 0.674,0.425 0.655,0.41 -0.431,-0.261 0.272,0.164 0,0 z"
         id="path274" /><g
         style="opacity:0.7"
         id="g275"
         transform="translate(-233.64792,29.902584)">
					<path
   style="fill:#1a29ba;fill-opacity:1"
   d="m 46.563,179.983 c 0.089,-1.476 2.086,-1.459 2.215,-0.036 0.149,1.626 -2.302,1.759 -2.215,0.036 z m 0.07,0.003 c 0.128,0.805 1.439,0.725 1.545,-0.047 0.027,-0.838 -1.458,-1.019 -1.545,0.047 z"
   id="path275" />
				</g><path
         style="fill:#6465ff;fill-opacity:1"
         d="m -185.83592,209.69059 c -0.961,-0.584 -0.517,0.571 -0.709,0.563 -0.477,-0.021 -0.24,-0.852 0.053,-0.982 0.515,-0.227 0.672,0.427 0.656,0.419 -0.436,-0.266 0.267,0.159 0,0 z"
         id="path276" /><g
         style="opacity:0.7"
         id="g277"
         transform="translate(-233.64792,29.902584)">
					<path
   style="fill:#ba1a3f"
   d="m 81.048,180.627 c -0.247,-1.456 1.696,-1.901 2.148,-0.547 0.518,1.554 -1.835,2.244 -2.148,0.547 z m 0.074,-0.015 c 0.305,0.758 1.56,0.372 1.489,-0.401 -0.163,-0.829 -1.766,-0.626 -1.489,0.401 z"
   id="path277" />
				</g><path
         style="fill:#ff87b2"
         d="m -151.42792,210.05059 c -1.069,-0.345 -0.368,0.674 -0.559,0.711 -0.466,0.088 -0.427,-0.773 -0.175,-0.97 0.449,-0.34 0.75,0.261 0.734,0.259 -0.48,-0.162 0.298,0.094 0,0 z"
         id="path278" /><g
         style="opacity:0.7"
         id="g279"
         transform="translate(-233.64792,29.902584)">
					<path
   style="fill:#ba1a3f"
   d="m 86.759,179.428 c -0.25,-1.454 1.692,-1.899 2.147,-0.543 0.523,1.551 -1.837,2.243 -2.147,0.543 z m 0.074,-0.012 c 0.304,0.758 1.564,0.372 1.489,-0.402 -0.164,-0.833 -1.762,-0.625 -1.489,0.402 z"
   id="path279" />
				</g><path
         style="fill:#ff87b2"
         d="m -145.71692,208.85359 c -1.066,-0.344 -0.369,0.673 -0.559,0.712 -0.47,0.089 -0.428,-0.775 -0.176,-0.967 0.45,-0.344 0.755,0.258 0.735,0.255 -0.484,-0.156 0.3,0.094 0,0 z"
         id="path280" /><g
         style="opacity:0.7"
         id="g281"
         transform="translate(-233.64792,29.902584)">
					<path
   style="fill:#ba1a3f"
   d="m 92.028,178.115 c -0.246,-1.446 1.681,-1.908 2.142,-0.555 0.536,1.555 -1.829,2.259 -2.142,0.555 z m 0.071,-0.016 c 0.308,0.759 1.569,0.377 1.489,-0.403 0.001,0.014 0.006,0.017 0.006,0.028 -0.188,-1.008 -1.741,-0.546 -1.495,0.375 z"
   id="path281" />
				</g><path
         style="fill:#ff87b2"
         d="m -140.44992,207.53559 c -1.066,-0.344 -0.37,0.678 -0.557,0.712 -0.471,0.094 -0.431,-0.77 -0.176,-0.965 0.449,-0.341 0.749,0.258 0.733,0.253 -0.481,-0.156 0.296,0.099 0,0 z"
         id="path282" /><g
         style="opacity:0.7"
         id="g283"
         transform="translate(-233.64792,29.902584)">
					<path
   style="fill:#ba1a3f"
   d="m 96.925,176.429 c -0.25,-1.454 1.679,-1.901 2.152,-0.531 0.311,1.625 -1.846,2.201 -2.152,0.531 z m 0.073,-0.01 c 0.258,0.643 1.532,0.472 1.499,-0.267 -0.051,-1.101 -1.672,-0.75 -1.499,0.267 z"
   id="path283" />
				</g><path
         style="fill:#ff87b2"
         d="m -135.54992,205.85359 c -1.071,-0.344 -0.367,0.673 -0.561,0.713 -0.469,0.091 -0.427,-0.775 -0.174,-0.965 0.449,-0.344 0.751,0.258 0.735,0.252 -0.482,-0.156 0.298,0.095 0,0 z"
         id="path284" /><path
         style="fill:url(#linearGradient645)"
         d="m -168.21992,73.435585 -0.92,0.081 h -0.003 c -1.768,-0.211 -3.558,0.211 -5.17,0.922 -1.633,0.709 -3.104,1.727 -4.486,2.823 -2.745,2.249 -5.06,4.962 -7.168,7.794 -2.1,2.844 -3.958,5.861 -5.654,8.959 -1.694,3.102 -3.253,6.278995 -4.668,9.515995 -1.401,3.237 -2.689,6.525 -3.908,9.843 -1.216,3.312 -2.313,6.675 -3.268,10.07501 -0.966,3.394 -1.803,6.828 -2.518,10.284 -0.705,3.463 -1.298,6.942 -1.736,10.45 -0.443,3.497 -0.748,7.015 -0.89,10.541 -0.07,1.76 -0.101,3.525 -0.087,5.29 l 0.01,1.316 0.046,1.321 0.089,2.663 c 0.023,0.886 0.073,1.77 0.133,2.65 l 0.167,2.638 c 0.104,1.764 0.302,3.522 0.449,5.282 0.17,1.76 0.396,3.513 0.591,5.27 l 0.737,5.254 c 0.555,3.489 1.154,6.976 1.875,10.441 l 0.54,2.595 0.585,2.593 c 0.375,1.729 0.815,3.44 1.232,5.16 0.88,3.427 1.803,6.841 2.838,10.227 1.024,3.388 2.115,6.749 3.296,10.086 l -0.377,-0.407 3.278,1.321 3.347,1.142 3.407,0.953 c 1.148,0.274 2.306,0.52 3.454,0.783 1.159,0.241 2.327,0.408 3.488,0.617 0.291,0.047 0.582,0.102 0.874,0.148 l 0.878,0.102 1.762,0.206 c 1.168,0.172 2.351,0.224 3.531,0.31 l 1.768,0.12 1.772,0.036 1.769,0.04 0.445,0.007 c 0.068,0 0.163,0.008 0.209,0.003 l 0.222,-0.009 0.893,-0.018 c 1.189,-0.036 2.389,-0.045 3.558,-0.141 1.176,-0.075 2.348,-0.145 3.521,-0.289 l 1.765,-0.188 c 0.586,-0.07 1.167,-0.17 1.754,-0.255 l 1.751,-0.262 1.736,-0.335 c 1.166,-0.204 2.313,-0.485 3.463,-0.759 1.15,-0.248 2.275,-0.615 3.417,-0.923 1.128,-0.329 2.237,-0.732 3.362,-1.093 l -0.425,0.423 c 1.188,-3.354 2.286,-6.739 3.312,-10.143 1.037,-3.401 1.967,-6.841 2.845,-10.286 0.42,-1.73 0.86,-3.456 1.235,-5.191 l 0.593,-2.603 0.537,-2.613 c 0.716,-3.484 1.32,-6.987 1.867,-10.5 0.279,-1.759 0.491,-3.523 0.743,-5.283 0.22,-1.767 0.401,-3.536 0.603,-5.301 l 0.453,-5.311 0.3,-5.324 0.142,-5.332 c 0.012,-1.78 0.007,-3.547 -0.068,-5.314 -0.12,-3.543 -0.431,-7.085 -0.857,-10.609 -0.446,-3.52 -1.014,-7.022 -1.731,-10.501 -0.714,-3.479 -1.561,-6.935 -2.525,-10.352 -0.972,-3.41401 -2.058,-6.80001 -3.285,-10.13201 -1.223,-3.331 -2.485,-6.651 -3.915,-9.907 -1.422,-3.252 -2.972,-6.455995 -4.676,-9.575995 -1.697,-3.124 -3.554,-6.166 -5.652,-9.037 -1.048,-1.44 -2.157,-2.836 -3.33,-4.168 -1.173,-1.337 -2.423,-2.618 -3.789,-3.766 -1.36,-1.144 -2.804,-2.213 -4.409,-2.997 -1.582,-0.813 -3.337,-1.341 -5.127,-1.36 z m 0,0 c 1.79,0.011 3.548,0.525 5.14,1.329 1.607,0.79 3.076,1.824 4.462,2.948 2.75,2.284 5.175,4.948 7.37,7.771 2.193,2.829 4.195,5.809 6.03,8.883 1.843,3.07 3.511,6.251995 5.049,9.488995 1.525,3.238 2.956,6.536 4.177,9.905 1.218,3.372 2.311,6.788 3.297,10.23601 0.971,3.453 1.83,6.934 2.546,10.45 0.726,3.511 1.301,7.053 1.753,10.609 0.432,3.56 0.744,7.141 0.869,10.729 0.07,1.796 0.077,3.598 0.069,5.385 l -0.146,5.37 -0.305,5.367 -0.458,5.353 c -0.201,1.777 -0.381,3.559 -0.6,5.335 -0.256,1.774 -0.468,3.55 -0.748,5.316 -0.553,3.539 -1.165,7.067 -1.886,10.575 l -0.538,2.627 -0.592,2.622 c -0.38,1.742 -0.823,3.479 -1.246,5.219 -0.885,3.466 -1.821,6.928 -2.862,10.347 -1.031,3.43 -2.134,6.833 -3.328,10.21 l -0.009,0.017 c -0.071,0.2 -0.229,0.344 -0.414,0.406 -1.149,0.372 -2.283,0.787 -3.435,1.117 -1.162,0.314 -2.307,0.687 -3.484,0.939 -1.171,0.278 -2.34,0.567 -3.524,0.77 l -1.772,0.344 -1.784,0.267 c -0.591,0.088 -1.189,0.188 -1.783,0.258 l -1.793,0.195 c -1.19,0.148 -2.397,0.214 -3.599,0.292 -1.211,0.099 -2.396,0.107 -3.59,0.138 l -0.89,0.024 -0.226,0.008 c -0.103,0 -0.158,-0.005 -0.236,-0.005 l -0.451,-0.008 -1.806,-0.039 -1.799,-0.033 -1.799,-0.123 c -1.197,-0.094 -2.4,-0.144 -3.589,-0.315 l -1.79,-0.217 -0.896,-0.101 c -0.3,-0.042 -0.592,-0.102 -0.889,-0.149 -1.187,-0.214 -2.376,-0.383 -3.552,-0.628 -1.176,-0.27 -2.349,-0.516 -3.519,-0.798 l -3.477,-0.975 -3.424,-1.165 -3.352,-1.352 c -0.177,-0.073 -0.306,-0.214 -0.368,-0.384 l -0.01,-0.023 c -1.187,-3.354 -2.283,-6.742 -3.314,-10.148 -1.038,-3.403 -1.972,-6.84 -2.858,-10.283 -0.421,-1.732 -0.859,-3.456 -1.239,-5.195 l -0.593,-2.604 -0.538,-2.613 c -0.723,-3.484 -1.329,-6.995 -1.888,-10.508 l -0.742,-5.29 c -0.198,-1.768 -0.423,-3.534 -0.6,-5.309 -0.143,-1.77 -0.341,-3.542 -0.451,-5.324 l -0.168,-2.669 c -0.062,-0.891 -0.11,-1.782 -0.131,-2.666 l -0.09,-2.663 -0.043,-1.34 -0.017,-1.336 c -0.012,-1.783 0.021,-3.571 0.094,-5.355 0.142,-3.566 0.446,-7.128 0.896,-10.665 0.441,-3.539 1.043,-7.057 1.752,-10.552 0.727,-3.489 1.569,-6.958 2.546,-10.385 0.969,-3.43301 2.071,-6.82301 3.271,-10.18501 0.617,-1.673 1.261,-3.333 1.946,-4.98 0.703,-1.637 1.432,-3.263 2.196,-4.879 1.534,-3.214995 3.184,-6.381995 5.028,-9.430995 1.83,-3.057 3.843,-6.004 6.043,-8.808 2.209,-2.792 4.651,-5.414 7.449,-7.616 1.405,-1.081 2.904,-2.066 4.544,-2.76 1.62,-0.703 3.417,-1.117 5.185,-0.899 v 0 z"
         id="path291" /><path
         d="m -152.20892,84.563585 c 0,0 -0.119,-0.047 -0.352,-0.136 -0.229,-0.091 -0.568,-0.232 -1.002,-0.383 -0.428,-0.162 -0.958,-0.342 -1.57,-0.539 -0.61,-0.193 -1.307,-0.381 -2.065,-0.587 -0.762,-0.201 -1.588,-0.399 -2.475,-0.576 -0.881,-0.18 -1.818,-0.335 -2.793,-0.477 -0.969,-0.136 -1.978,-0.266 -3.002,-0.336 -1.029,-0.078 -2.073,-0.136 -3.113,-0.128 -1.052,0.016 -2.094,0.034 -3.121,0.102 -1.031,0.063 -2.046,0.148 -3.022,0.242 -0.979,0.097 -1.921,0.214 -2.82,0.329 -0.894,0.111 -1.736,0.245 -2.514,0.385 -1.547,0.281 -2.833,0.548 -3.721,0.795 -0.442,0.128 -0.791,0.222 -1.024,0.306 -0.236,0.072 -0.361,0.117 -0.361,0.117 0,0 0.119,-0.055 0.345,-0.156 0.224,-0.107 0.557,-0.248 0.997,-0.403 0.871,-0.309 2.131,-0.728 3.684,-1.073 1.548,-0.354 3.369,-0.71 5.341,-0.945 0.985,-0.128 2.011,-0.227 3.05,-0.291 1.045,-0.078 2.105,-0.115 3.167,-0.11 2.135,0.003 4.25,0.229 6.213,0.566 0.98,0.172 1.923,0.38 2.807,0.593 0.886,0.218 1.712,0.455 2.471,0.689 0.762,0.231 1.44,0.492 2.045,0.725 0.597,0.242 1.119,0.455 1.537,0.651 0.426,0.185 0.741,0.359 0.965,0.474 0.217,0.109 0.333,0.166 0.333,0.166 z"
         id="path295" /><path
         style="fill:url(#linearGradient646)"
         d="m -164.51592,74.154585 c -0.866,-9.193 -3.789,-28.416 -4.651,-33.978 0,0 1.284,30.546 1.284,30.549 0.005,1.188 -2.566,1.821 -3.44,2.134 -0.252,0.092 -2.252,0.678 -2.27,0.892 -0.013,0.11 -0.021,0.224 -0.029,0.328 5.356,-1.57 9.7,0.1 12.125,3.901 0.836,1.311 -0.666,2.454 -1.953,2.335 -7.883,-0.742 -14.433,0.578 -21.281,3.283 3.8,-0.961 9.873,-1.795 14.728,-1.396 3.567,0.294 8.37,0.828 10.729,4.05 3.642,4.98 4.592,11.313 5.479,17.262995 0.234,1.54 0.794,3.245 0.62,4.821 -0.183,1.618 -0.83196,1.09263 -2.914,1.082 -4.35472,-0.39681 -11.21517,0.0933 -11.8996,0.0931 -4.568,0.387 -9.21322,0.63221 -13.72422,1.40321 5.136,-0.355 10.37082,-0.83383 15.36382,-0.18883 9.96,1.287 12.158,4.8135 12.672,6.6485 0.548,1.965 3.585,20.09501 3.5,22.83601 -0.086,2.65 -1.817,5.477 -4.835,5.319 -4.675,-0.242 -9.559,0.141 -14.253,0.24 -4.975,0.096 -21.531,1.558 -25.925,3.739 -0.002,0.009 -0.004,0.016 -0.007,0.023 16.402,-2.254 39.977,-1.782 42.459,-0.111 4.585,3.08 1.663,24.966 1.517,28.749 -0.165,4.207 -5.206,3.073 -7.279,0.892 -1.226,-0.933 -2.317,-2.13 -3.289,-3.13 -1.142,-1.173 -2.258,-2.377 -3.396,-3.555 -0.788,-0.808 -1.453,-1.885 -2.665,-2.059 -1.382,-0.195 -2.463,0.058 -3.256,1.113 -1.927,2.577 -3.604,5.128 -4.798,7.564 -1.24,2.528 -2.527,5.037 -3.88,7.5 -1.114,2.166 -2.381,5.589 -3.305,7.855 -1.793,4.389 -1.556,5.561 -1.008,9.319 0.127,0.891 -0.348,1.776 -1.349,1.782 -3.857,0.023 -7.59884,-0.24981 -11.17084,-1.35781 0.425,0.255 0.88343,0.29406 1.26203,0.71556 1.74062,2.19612 0.82517,4.68656 3.11017,6.00856 3.067,1.768 8.56064,2.29769 9.25764,5.56569 0.962,4.511 1.954,9.029 2.835,13.554 0.17,0.862 0.21866,1.0745 0.43066,1.9945 4.16,0.648 8.67834,1.6745 13.18534,1.6515 9.383,-0.033 18.172,-1.605 25.714,-4.307 4.749,-13.403 12.368,-39.313 12.669,-68.262 0.405,-39.05001 -20.469,-80.937005 -36.363,-86.859005 z"
         id="path298" /><path
         style="opacity:0.4;fill:url(#radialGradient646)"
         d="m -162.25692,75.471585 c 0,0 17.717,10.896 28.104,52.315005 10.097,40.259 -6.497,96.143 -7.399,101.308 l -20.29,4.389 c 0,0 12.586,-10.65 18.433,-41.006 5.571,-28.936 3.572,-88.61801 -18.848,-117.006005 z"
         id="path300" /><path
         style="opacity:0.7;fill:#206fec;fill-opacity:1"
         d="m -162.25692,75.471585 c 0,0 17.717,10.896 28.104,52.315005 10.097,40.259 -6.497,96.143 -7.399,101.308 l -10.704,2.207 c 0,0 9.509,-8.263 15.357,-38.62 5.573,-28.938 7.571,-82.88801 -25.358,-117.210005 z"
         id="path302" /><path
         style="opacity:0.7;fill:url(#linearGradient647)"
         d="m -175.23292,75.531585 c 0,0 -17.624,11.042 -27.655,52.548005 -9.752,40.342 7.10206,94.60944 8.05306,99.76044 l 20.53594,5.69956 c 0,0 -12.677,-10.547 -18.78,-40.851 -5.82,-28.889 -4.331,-88.58201 17.846,-117.157005 z"
         id="path304" /><path
         style="fill:url(#radialGradient647)"
         d="m -175.23292,75.531585 c 0,0 -17.624,11.042 -27.655,52.548005 -9.752,40.342 7.10988,94.56256 8.06088,99.71356 l 10.92412,3.64244 c 0,0 -9.582,-8.181 -15.688,-38.489 -5.82,-28.883 -8.275,-82.82001 24.358,-117.415005 z"
         id="path306" /><path
         style="fill:url(#radialGradient648)"
         d="m -169.48692,40.732585 c 0,0 -1.815,27.198 -1.837,32.127 0,0 1.201,0.123 1.513,-0.034 z"
         id="path308" /><path
         style="fill:#e7e3dd"
         d="m -153.56292,198.83859 c -0.784,-6.049 -11.633,-27.432 -14.766,-27.418 l -0.798,0.003 c -3.129,0.012 -13.794,21.488 -14.528,27.543 -0.574,4.753 5.743,33.099 10.605,52.184 1.342,5.256 2.573,9.814 3.522,12.979 0.427,1.433 1.979,1.425 2.396,-0.014 0.923,-3.169 2.11,-7.74 3.408,-13.004 4.705,-19.129 10.778,-47.527 10.161,-52.273 z"
         id="path309" /><path
         style="fill:url(#linearGradient648)"
         d="m -153.63092,198.84859 c 0,0 -0.023,-0.195 -0.096,-0.563 -0.073,-0.369 -0.203,-0.917 -0.421,-1.621 -0.421,-1.407 -1.169,-3.432 -2.292,-5.938 -1.109,-2.513 -2.62,-5.489 -4.486,-8.821 -0.938,-1.658 -1.983,-3.401 -3.167,-5.176 -0.594,-0.884 -1.227,-1.78 -1.917,-2.636 -0.344,-0.43 -0.711,-0.849 -1.094,-1.232 -0.193,-0.195 -0.395,-0.375 -0.593,-0.531 -0.199,-0.151 -0.421,-0.276 -0.556,-0.305 -0.038,-0.016 -0.051,-0.003 -0.07,-0.016 l -0.218,0.008 -0.447,0.014 -0.11,-0.006 c -0.031,0 0.072,0 10e-4,0.006 l -0.054,0.007 c -0.105,0.003 -0.055,0.024 -0.077,0.024 -0.07,0.031 -0.166,0.077 -0.262,0.143 -0.397,0.278 -0.793,0.712 -1.167,1.155 -0.753,0.9 -1.44,1.926 -2.106,2.985 -1.331,2.122 -2.596,4.409 -3.813,6.795 -1.213,2.392 -2.393,4.889 -3.509,7.468 -0.553,1.296 -1.09,2.616 -1.573,3.957 -0.478,1.337 -0.956,2.713 -1.214,4.07 -0.015,0.086 -0.035,0.167 -0.04,0.25 l -0.018,0.128 c -0.011,0.067 -0.002,-0.031 -0.005,0.008 v 0.07 l -0.018,0.553 c -0.006,0.182 -0.021,0.375 -0.017,0.556 l 0.042,0.515 0.071,1.048 0.126,1.103 c 0.076,0.729 0.181,1.471 0.295,2.207 0.102,0.743 0.212,1.485 0.342,2.229 0.475,2.983 1.06,5.989 1.638,9.027 0.588,3.028 1.2,6.082 1.847,9.142 0.625,3.065 1.281,6.138 1.947,9.208 0.67,3.064 1.362,6.129 2.064,9.179 0.743,3.041 1.445,6.082 2.254,9.056 0.801,2.986 1.611,5.947 2.436,8.862 0.204,0.728 0.411,1.457 0.617,2.182 0.101,0.344 0.241,0.618 0.485,0.784 0.232,0.173 0.523,0.204 0.77,0.092 0.247,-0.115 0.44,-0.357 0.543,-0.654 0.055,-0.135 0.095,-0.321 0.138,-0.503 l 0.136,-0.54 c 0.172,-0.724 0.349,-1.443 0.525,-2.157 0.703,-2.859 1.392,-5.677 2.064,-8.428 0.163,-0.686 0.348,-1.382 0.492,-2.046 0.158,-0.683 0.313,-1.36 0.465,-2.035 0.313,-1.353 0.621,-2.682 0.923,-3.995 1.216,-5.262 2.365,-10.232 3.421,-14.816 1.071,-4.589 2.06,-8.793 2.861,-12.533 0.802,-3.744 1.497,-7.012 1.945,-9.723 0.243,-1.348 0.411,-2.564 0.567,-3.62 0.113,-1.058 0.261,-1.957 0.287,-2.689 0.027,-0.369 0.046,-0.69 0.065,-0.972 0.016,-0.278 -0.006,-0.508 -0.008,-0.701 -0.013,-0.377 -0.019,-0.574 -0.019,-0.574 z m 0.138,-0.017 c 0,0 0.005,0.198 0.023,0.581 0,0.192 0.028,0.436 0.011,0.712 -0.014,0.281 -0.037,0.61 -0.06,0.977 -0.021,0.742 -0.159,1.643 -0.264,2.705 -0.157,1.056 -0.284,2.28 -0.506,3.636 -0.406,2.721 -0.92,6.025 -1.59,9.796 -0.663,3.773 -1.436,8.03 -2.369,12.655 -0.933,4.623 -2.049,9.608 -3.317,14.862 -0.651,2.63 -1.295,5.309 -2.075,8.061 -0.763,2.731 -1.539,5.52 -2.332,8.357 -0.2,0.712 -0.397,1.423 -0.599,2.138 l -0.148,0.537 c -0.05,0.171 -0.089,0.358 -0.178,0.564 -0.153,0.398 -0.456,0.79 -0.901,0.978 -0.443,0.193 -0.993,0.102 -1.353,-0.191 -0.373,-0.273 -0.57,-0.725 -0.667,-1.094 -0.193,-0.732 -0.383,-1.463 -0.573,-2.197 -0.762,-2.938 -1.559,-5.895 -2.373,-8.879 -0.836,-2.989 -1.57,-6.015 -2.338,-9.048 -0.781,-3.034 -1.558,-6.08 -2.307,-9.132 -0.758,-3.055 -1.507,-6.105 -2.221,-9.155 -0.707,-3.049 -1.384,-6.096 -2.036,-9.124 -0.636,-3.03 -1.239,-6.044 -1.755,-9.045 -0.137,-0.749 -0.259,-1.499 -0.374,-2.249 -0.123,-0.746 -0.236,-1.494 -0.321,-2.247 l -0.143,-1.123 -0.094,-1.181 -0.042,-0.587 c -0.005,-0.19 0.004,-0.375 0.005,-0.557 l 0.014,-0.555 0.003,-0.068 c -0.003,-0.011 0.01,-0.151 0.01,-0.128 l 0.02,-0.148 c 0.015,-0.102 0.032,-0.2 0.045,-0.297 0.284,-1.54 0.749,-2.945 1.241,-4.329 0.496,-1.375 1.04,-2.713 1.6,-4.028 1.121,-2.627 2.328,-5.145 3.584,-7.553 1.263,-2.405 2.549,-4.72 3.961,-6.87 0.712,-1.078 1.438,-2.118 2.273,-3.082 0.433,-0.482 0.868,-0.952 1.471,-1.351 0.157,-0.096 0.327,-0.189 0.538,-0.266 0.118,-0.039 0.313,-0.08 0.357,-0.078 l 0.055,-0.002 c -0.034,0 0.108,-0.009 0.114,-0.006 l 0.112,-0.003 0.444,0.011 0.225,0.006 c 0.124,0.007 0.265,0.018 0.368,0.055 0.433,0.127 0.705,0.338 0.964,0.542 0.254,0.208 0.48,0.43 0.685,0.653 0.42,0.44 0.777,0.909 1.122,1.369 0.682,0.93 1.281,1.867 1.845,2.793 1.122,1.853 2.085,3.656 2.968,5.363 1.757,3.414 3.101,6.479 4.174,9.015 1.052,2.54 1.791,4.579 2.205,5.993 0.207,0.712 0.335,1.268 0.406,1.643 0.075,0.378 0.093,0.571 0.093,0.571 z"
         id="path315" /><path
         style="fill:url(#SVGID_00000140712565636072147790000012845206686596176044_)"
         d="m -160.34392,191.08359 c -0.508,1.379 -1.785,4.826 -1.785,4.826 l 2.974,9.513 -0.833,4.159 -2.963,-8.936 -1.563,5.066 1.901,10.336 -1.366,6.982 -2.199,-16.212 c -1.944,2.499 -4.185,-0.136 -4.185,-0.136 l -2.368,15.511 -1.004,-4.917 c 0.308,-2.32 1.762,-11.109 1.762,-11.109 l -2.16,-5.191 c -0.993,2.064 -2.65,9.921 -2.65,9.921 l -1.029,-3.993 c 0.594,-3.935 2.744,-10.351 2.744,-10.351 -0.876,-1.657 -1.932,-4.948 -1.932,-4.948 -2.676,4.516 -4.369,9.788 -5.887,15.047 1.784,10.909 6.213,30.279 9.84,44.501 1.342,5.256 2.573,9.814 3.522,12.979 0.427,1.433 1.979,1.425 2.396,-0.014 0.923,-3.169 2.11,-7.74 3.408,-13.004 3.767,-15.316 8.412,-36.574 9.797,-46.875 -3.264,-7.789 -6.42,-13.155 -6.42,-13.155 z"
         id="path323" /><path
         style="fill:url(#radialGradient649)"
         d="m -171.90192,205.42459 c 0,0 -1.494,-3.628 -2.237,-5.442 -1.214,3.102 -1.992,6.317 -2.662,9.567 -0.238,-1.115 -0.815,-2.617 -0.815,-2.617 0,0 1.532,-6.121 2.484,-9.264 0.268,-0.886 0.268,-1.16 0.268,-1.16 0,0 -1.511,-3.799 -2.062,-5.642 -1.371,2.499 -3.909,8.254 -4.382,9.84 -0.227,0.761 -0.45,1.517 -0.666,2.283 -0.298,1.073 -0.968,2.65 -0.883,3.67 1.914,-5.733 3.051,-8.947 5.811,-14.339 0.53,1.443 1.125,2.854 1.793,4.245 -0.954,3.308 -1.253,4.042 -2.1,7.381 -0.298,1.185 -0.762,3.249 -0.762,3.249 0,0 0.97,3.393 1.331,4.898 0.799,-3.386 1.493,-6.834 2.676,-10.109 0.586,1.407 1.176,2.814 1.768,4.222 -0.454,2.831 -0.849,5.674 -1.235,8.507 -0.177,1.287 -0.384,3.048 -0.384,3.048 l 1.189,4.439 -0.783,-4.902 1.867,-11.289 z"
         id="path332" /><path
         style="fill:url(#radialGradient650)"
         d="m -161.76692,195.92559 c 0.492,-1.293 0.981,-2.591 1.464,-3.895 2.323,4.817 3.965,7.434 6.346,12.221 -0.058,-1.02 -5.52,-12.199 -6.426,-14.127 -0.284,0.758 -2.013,4.675 -2.113,5.777 -0.037,0.419 2.054,6.027 2.411,7.122 0.174,0.537 0.525,2.155 0.794,2.369 -0.219,1.258 -0.475,2.51 -0.722,3.769 -1.026,-3.146 -1.965,-6.32 -2.929,-9.484 -0.597,1.819 -1.168,3.643 -1.721,5.48 -0.286,0.954 1.384,8.265 2.017,10.892 0.281,-1.243 -0.423,-3.425 -0.642,-4.777 -0.116,-0.735 -0.728,-4.434 -0.922,-5.538 0.437,-1.384 0.871,-2.768 1.281,-4.159 1.005,2.799 2.024,5.59 2.965,8.415 0.227,-1.098 0.456,-2.197 0.678,-3.299 0.275,-1.329 0.141,-1.77 -0.228,-3.067 -0.927,-3.321 -1.28,-4.395 -2.253,-7.699 z"
         id="path341" /><path
         style="fill:url(#radialGradient651)"
         d="m -162.57892,216.05359 c -0.771,1.27 -0.98,3.59 -1.315,5.145 -0.607,-4.925 -1.372,-9.824 -2.192,-14.721 -1.346,1.626 -2.94,1.637 -4.355,-0.091 -0.482,2.671 -1.041,5.321 -1.411,8.002 -0.213,1.457 -0.393,2.92 -0.566,4.378 -0.124,1.02 -0.492,2.513 -0.281,3.428 1.177,-5.014 1.794,-10.124 2.431,-15.233 1.229,1.192 2.743,1.317 3.979,0.181 0.625,5.951 1.371,11.877 2.299,17.793 0.505,-2.955 1.022,-5.907 1.411,-8.882 z"
         id="path350" /><path
         style="opacity:0.5;fill:url(#radialGradient652)"
         d="m -153.56292,198.83859 c -0.225,-1.743 -1.293,-4.769 -2.768,-8.185 2.408,9.697 -3.039,41.037 -7.355,45.861 -0.735,0.82 -1.748,-17.26 -1.784,-18.286 -0.27,-7.521 -0.739,-29.707 -1.069,-32.395 -0.101,3.983 -0.322,23.537 -0.335,30.85 -0.036,27.134 -2.492,33.501 -3.183,1.021 -0.166,-7.778 -0.44,-23.835 -0.243,-31.624 -0.439,5.699 -1.044,29.474 -1.216,32.33 -0.558,9.137 -0.521,18.686 -1.166,17.99 -3.858,-4.17 -8.828,-41.632 -8.278,-45.252 0.031,-0.219 0.075,-0.433 0.111,-0.648 -1.499,3.533 -2.588,6.676 -2.806,8.467 -0.574,4.753 5.743,33.099 10.605,52.184 1.342,5.256 2.573,9.814 3.522,12.979 0.427,1.433 1.979,1.425 2.396,-0.014 0.923,-3.169 2.11,-7.74 3.408,-13.004 4.705,-19.13 10.778,-47.528 10.161,-52.274 z"
         id="path353" /><path
         style="opacity:0.5;fill:url(#radialGradient653)"
         d="m -170.58992,181.35159 2.637,73.632 1.084,-73.803 c 0,0 0.603,-4.029 3.887,1.999 3.279,6.035 7.333,11.596 7.333,11.596 0,0 -7.671,-16.71 -10.784,-20.415 -3.116,-3.712 -4.354,-2.775 -15.102,21.147 -0.002,0 10.759,-21.598 10.945,-14.156 z"
         id="path355" /><path
         style="fill:url(#radialGradient654)"
         d="m -168.95692,173.28459 c 0,0 -1.11,12.561 -0.598,23.954 0.516,11.392 1.095,38.369 1.095,38.369 0,0 1.14,-33.263 1.118,-38.379 -0.023,-5.112 -0.438,-19.763 -1.615,-23.944 z"
         id="path357" /></g></g></g>
</svg>
